<svg width="392" height="430" viewBox="0 0 392 430" fill="none" xmlns="http://www.w3.org/2000/svg">
<path d="M189.085 299.59C159.536 299.592 130.65 290.831 106.079 274.416C81.5092 258.001 62.3586 234.668 51.0492 207.369C39.7399 180.07 36.7798 150.03 42.5434 121.048C48.3069 92.0665 62.5352 65.4448 83.4289 44.5497C104.323 23.6546 130.943 9.42457 159.925 3.65909C188.906 -2.10639 218.946 0.851668 246.246 12.1592C273.546 23.4667 296.88 42.6158 313.297 67.1849C329.713 91.754 338.476 120.639 338.476 150.189C338.477 169.808 334.614 189.235 327.107 207.361C319.6 225.487 308.596 241.957 294.724 255.831C280.851 269.704 264.382 280.709 246.257 288.217C228.131 295.725 208.704 299.59 189.085 299.59Z" fill="white"/>
<path d="M189.085 299.59C225.567 299.64 260.797 286.289 288.083 262.072C316.451 235.065 333.079 197.998 334.384 158.852C335.69 119.705 321.57 81.6122 295.064 52.7753C268.558 23.9383 231.787 6.66442 192.67 4.67352C153.553 2.68261 115.218 16.1339 85.9213 42.1308C64.3371 62.7389 49.419 89.3388 43.0898 118.502C36.7605 147.666 39.3101 178.057 50.41 205.758C61.5099 233.46 80.6514 257.202 105.368 273.926C130.084 290.65 159.242 299.588 189.085 299.59Z" fill="url(#paint0_radial_71_996)"/>
<path d="M254.601 284.477C220.893 299.463 182.833 301.45 147.748 290.055C112.664 278.66 83.0345 254.689 64.5654 222.757C46.0962 190.825 40.0928 153.189 47.7109 117.095C55.3291 81.0016 76.0302 49.0021 105.829 27.2576C98.7897 31.6513 92.1307 36.6264 85.9214 42.1307C60.1432 66.7496 44.0161 99.7734 40.4514 135.24C36.8867 170.707 46.1194 206.28 66.4827 235.536C86.8459 264.793 116.998 285.805 151.495 294.78C185.992 303.754 222.561 300.1 254.601 284.477Z" fill="#EDECEE"/>
<path d="M232.415 193.2C158.929 159.838 163.713 161.316 160.926 162.365C158.139 163.414 159.718 161.456 137.812 209.741C118.424 252.423 173.113 289.97 206.045 257.018C213.207 249.846 213.237 247.648 234.923 199.862C235.201 199.261 235.357 198.611 235.381 197.948C235.405 197.286 235.298 196.626 235.064 196.006C234.831 195.386 234.477 194.819 234.022 194.337C233.567 193.855 233.021 193.469 232.415 193.2ZM166.92 186.208C155.243 209.891 138.222 232.645 154.673 251.035C149.627 246.463 146.164 240.405 144.785 233.737C143.406 227.069 144.182 220.135 147.002 213.936C169.367 164.662 155.433 169.337 223.705 200.322C221.847 204.297 173.972 171.874 166.92 186.168V186.208Z" fill="#41BCE8"/>
<path d="M162.055 155.462C239.318 116.576 234.863 119.573 235.872 116.507C236.881 113.44 237.44 116.117 211.899 65.3544C189.325 20.4652 121.202 40.8521 126.546 90.496C127.714 101.294 129.542 102.802 154.814 153.035C155.129 153.671 155.567 154.238 156.102 154.704C156.637 155.17 157.258 155.526 157.931 155.751C158.604 155.977 159.314 156.067 160.022 156.018C160.73 155.968 161.421 155.78 162.055 155.462ZM211.999 105.519C200.092 79.858 192.551 50.3514 166.141 51.6999C173.35 50.5544 180.736 51.7324 187.232 55.0635C193.727 58.3946 198.994 63.7059 202.27 70.2289C228.32 122.04 233.804 107.267 161.986 143.396C159.898 139.171 219.171 121.041 211.979 105.529L211.999 105.519Z" fill="url(#paint1_linear_71_996)"/>
<path d="M209.022 160.197C209.022 160.197 219.53 146.892 233.464 152.736C247.399 158.579 252.333 156.781 252.962 156.511C253.592 156.242 232.475 189.844 209.651 163.244C209.651 163.244 214.126 159.778 230.138 162.375C230.138 162.375 239.298 163.244 242.534 161.716C242.534 161.716 243.053 161.246 241.995 161.206C238.734 161.023 235.492 160.596 232.296 159.928C229.908 159.208 215.535 157.63 209.022 160.197Z" fill="url(#paint2_linear_71_996)" stroke="#006838" stroke-width="0.13" stroke-miterlimit="10"/>
<path d="M237.79 144.315C237.79 144.315 241.336 131.65 253.053 131.67C264.769 131.69 267.776 128.913 268.145 128.533C268.515 128.154 263.451 158.499 239.178 146.313C239.178 146.313 241.346 142.487 253.592 139.561C253.592 139.561 260.414 137.443 262.272 135.385C262.272 135.385 262.502 134.886 261.733 135.176C259.342 136.024 256.891 136.692 254.401 137.173C252.413 137.373 241.685 140.539 237.79 144.315Z" fill="url(#paint3_linear_71_996)" stroke="#006838" stroke-width="0.1" stroke-miterlimit="10"/>
<path d="M239.698 176.379C239.698 176.379 253.342 167.679 264.07 177.308C274.798 186.937 279.822 186.857 280.472 186.817C281.121 186.777 251.554 210.46 239.308 179.326C239.308 179.326 244.422 177.598 258.047 184.959C258.047 184.959 266.038 188.615 269.434 188.246C269.434 188.246 270.053 187.986 269.114 187.616C266.228 186.433 263.436 185.03 260.764 183.421C258.796 181.973 246.37 176.109 239.698 176.379Z" fill="url(#paint4_linear_71_996)" stroke="#006838" stroke-width="0.12" stroke-miterlimit="10"/>
<path d="M199.493 167.269C201.639 167.269 203.379 165.53 203.379 163.384C203.379 161.238 201.639 159.498 199.493 159.498C197.347 159.498 195.607 161.238 195.607 163.384C195.607 165.53 197.347 167.269 199.493 167.269Z" fill="url(#paint5_linear_71_996)" stroke="#006838" stroke-width="0.2" stroke-miterlimit="10"/>
<path d="M229.059 140.09C230.891 140.09 232.376 138.605 232.376 136.774C232.376 134.942 230.891 133.458 229.059 133.458C227.228 133.458 225.743 134.942 225.743 136.774C225.743 138.605 227.228 140.09 229.059 140.09Z" fill="url(#paint6_linear_71_996)" stroke="#006838" stroke-width="0.17" stroke-miterlimit="10"/>
<path d="M232.596 189.404C235.299 189.404 237.49 187.213 237.49 184.51C237.49 181.807 235.299 179.615 232.596 179.615C229.893 179.615 227.701 181.807 227.701 184.51C227.701 187.213 229.893 189.404 232.596 189.404Z" fill="url(#paint7_linear_71_996)" stroke="#006838" stroke-width="0.25" stroke-miterlimit="10"/>
<path d="M272.181 158.339C274.696 158.339 276.735 156.3 276.735 153.784C276.735 151.269 274.696 149.229 272.181 149.229C269.665 149.229 267.626 151.269 267.626 153.784C267.626 156.3 269.665 158.339 272.181 158.339Z" fill="url(#paint8_linear_71_996)" stroke="#006838" stroke-width="0.23" stroke-miterlimit="10"/>
<path d="M275.816 175.73C279 175.73 281.58 173.149 281.58 169.966C281.58 166.783 279 164.203 275.816 164.203C272.633 164.203 270.053 166.783 270.053 169.966C270.053 173.149 272.633 175.73 275.816 175.73Z" fill="url(#paint9_linear_71_996)" stroke="#006838" stroke-width="0.3" stroke-miterlimit="10"/>
<path d="M211.446 403.535C209.735 405.331 208.791 407.723 208.814 410.204C208.838 412.684 209.826 415.058 211.571 416.822C212.412 417.716 213.428 418.428 214.557 418.911C215.685 419.395 216.902 419.641 218.129 419.633H227.178C228.421 419.608 229.656 419.841 230.805 420.317C231.953 420.793 232.991 421.502 233.852 422.399C234.74 423.289 235.439 424.35 235.906 425.517C236.374 426.683 236.601 427.933 236.574 429.19H218.129C215.647 429.231 213.184 428.751 210.9 427.779C208.616 426.808 206.561 425.367 204.869 423.55C203.082 421.706 201.681 419.525 200.746 417.133C199.811 414.742 199.363 412.188 199.426 409.621C199.563 404.905 201.442 400.407 204.7 396.994C207.872 393.589 212.219 391.516 216.862 391.194C217.346 391.155 217.832 391.14 218.317 391.149H235.798C234.388 383.841 232.05 378.657 228.659 375.748C225.268 372.839 221.94 371.384 218.576 371.384C216.804 371.403 215.069 371.896 213.552 372.812C211.858 373.794 210.509 375.274 209.688 377.051C207.984 380.076 205.646 381.593 202.621 381.593H199.39C199.305 376.469 201.226 371.514 204.744 367.788C208.196 364.131 212.952 361.986 217.978 361.818H218.567C219.165 361.818 219.762 361.818 220.351 361.863C224.92 362.23 229.289 363.896 232.942 366.664C236.806 369.564 239.956 373.802 242.383 379.424C244.81 385.046 245.952 392.149 245.952 400.706H217.96C215.505 400.775 213.172 401.788 211.446 403.535ZM223.046 347.907C222.546 347.383 221.945 346.966 221.28 346.682C220.614 346.397 219.898 346.25 219.173 346.25C218.449 346.25 217.733 346.397 217.067 346.682C216.402 346.966 215.801 347.383 215.301 347.907C214.266 348.956 213.687 350.369 213.687 351.842C213.687 353.315 214.266 354.729 215.301 355.777C215.801 356.301 216.402 356.718 217.067 357.003C217.733 357.288 218.449 357.434 219.173 357.434C219.898 357.434 220.614 357.288 221.28 357.003C221.945 356.718 222.546 356.301 223.046 355.777C224.081 354.729 224.66 353.315 224.66 351.842C224.66 350.369 224.081 348.956 223.046 347.907Z" fill="white"/>
<path d="M209.697 403.205C207.98 404.998 207.032 407.391 207.055 409.874C207.078 412.356 208.071 414.731 209.822 416.492C210.662 417.385 211.677 418.096 212.804 418.579C213.931 419.063 215.145 419.309 216.372 419.303H225.393C226.638 419.28 227.873 419.514 229.023 419.989C230.173 420.465 231.213 421.173 232.077 422.069C232.964 422.959 233.663 424.019 234.131 425.186C234.598 426.353 234.825 427.603 234.798 428.859H216.372C213.881 428.899 211.41 428.412 209.121 427.431C206.831 426.45 204.774 424.997 203.085 423.166C201.298 421.322 199.896 419.141 198.961 416.749C198.027 414.358 197.578 411.804 197.642 409.237C197.774 404.52 199.654 400.02 202.915 396.61C206.089 393.207 210.435 391.134 215.078 390.81C215.559 390.786 216.042 390.786 216.523 390.81H234.004C232.603 383.502 230.265 378.318 226.866 375.409C223.466 372.5 220.146 371.045 216.791 371.045C215.019 371.064 213.285 371.557 211.767 372.473C210.069 373.451 208.716 374.932 207.895 376.711C206.235 379.722 203.9 381.227 200.89 381.227H197.66C197.574 376.103 199.495 371.148 203.014 367.422C206.461 363.764 211.214 361.618 216.238 361.452H216.836C217.434 361.452 218.023 361.452 218.576 361.452C223.145 361.818 227.514 363.484 231.167 366.253C235.039 369.153 238.189 373.392 240.608 379.014C243.026 384.635 244.23 391.738 244.23 400.296H216.202C213.738 400.383 211.405 401.427 209.697 403.205ZM221.297 347.577C220.798 347.054 220.197 346.639 219.532 346.355C218.868 346.071 218.152 345.924 217.429 345.924C216.706 345.924 215.991 346.071 215.326 346.355C214.661 346.639 214.061 347.054 213.561 347.577C212.526 348.627 211.946 350.042 211.946 351.516C211.946 352.991 212.526 354.406 213.561 355.456C214.061 355.978 214.661 356.394 215.326 356.678C215.991 356.962 216.706 357.108 217.429 357.108C218.152 357.108 218.868 356.962 219.532 356.678C220.197 356.394 220.798 355.978 221.297 355.456C222.332 354.406 222.912 352.991 222.912 351.516C222.912 350.042 222.332 348.627 221.297 347.577Z" fill="white" stroke="white" stroke-width="1.12" stroke-miterlimit="10"/>
<path d="M29.0793 357.491L44.954 428.369H40.2514C38.5486 428.39 36.8951 427.798 35.5934 426.7C34.2404 425.642 33.3099 424.136 32.9699 422.453L31.453 415.474H14.9269L13.41 422.453C13.0669 424.137 12.1333 425.643 10.7776 426.7C9.47823 427.796 7.82819 428.388 6.12851 428.369H1.41699L17.3005 357.491H29.0793ZM29.231 404.784L23.2078 376.578L17.1934 404.784H29.231Z" fill="white" stroke="white" stroke-width="1.12" stroke-miterlimit="10"/>
<path d="M79.6839 400.465H75.3829V389.695H90.5526V428.369H84.0831L82.3609 425.79C79.6448 427.522 76.4801 428.418 73.2591 428.369C68.701 428.369 64.3296 426.558 61.1065 423.335C57.8834 420.112 56.0728 415.74 56.0728 411.182V374.73C56.1751 370.239 58.0312 365.966 61.244 362.826C64.4567 359.685 68.7709 357.927 73.2636 357.927C77.7562 357.927 82.0704 359.685 85.2832 362.826C88.4959 365.966 90.352 370.239 90.4544 374.73V379.023H83.9314C83.3768 379.034 82.8256 378.933 82.3116 378.724C81.7976 378.515 81.3316 378.204 80.9421 377.809C80.5331 377.43 80.2095 376.968 79.9926 376.454C79.7757 375.94 79.6704 375.386 79.6839 374.829C79.6815 373.18 79.0679 371.59 77.9617 370.367C77.371 369.709 76.6446 369.188 75.8327 368.838C75.0208 368.488 74.1428 368.319 73.2591 368.341C71.5949 368.325 69.9915 368.967 68.7974 370.126C68.1454 370.71 67.6269 371.427 67.2773 372.23C66.9277 373.032 66.7553 373.9 66.7718 374.775V411.227C66.7669 412.525 67.1541 413.793 67.8824 414.867C68.6108 415.941 69.6465 416.77 70.8539 417.246C72.0614 417.721 73.3842 417.821 74.6493 417.532C75.9143 417.243 77.0627 416.579 77.9439 415.626C79.0657 414.395 79.6809 412.785 79.6661 411.12L79.6839 400.465Z" fill="white" stroke="white" stroke-width="1.12" stroke-miterlimit="10"/>
<path d="M122.346 368.208H109.149C108.173 368.209 107.206 368.017 106.304 367.644C105.402 367.271 104.583 366.723 103.893 366.033C103.204 365.342 102.657 364.522 102.285 363.62C101.913 362.717 101.722 361.75 101.725 360.774V357.491H133.929V368.199L113.298 417.643H126.496C127.473 417.64 128.44 417.831 129.343 418.204C130.246 418.577 131.066 419.124 131.757 419.815C132.448 420.505 132.995 421.326 133.368 422.229C133.741 423.132 133.931 424.099 133.929 425.076V428.36H101.725V417.652L122.346 368.208Z" fill="white" stroke="white" stroke-width="1.12" stroke-miterlimit="10"/>
<path d="M172.745 357.491L188.619 428.369H183.917C182.214 428.39 180.561 427.798 179.259 426.7C177.909 425.64 176.979 424.134 176.635 422.453L175.118 415.474H158.592L157.075 422.453C156.732 424.137 155.799 425.643 154.443 426.7C153.144 427.796 151.494 428.388 149.794 428.369H145.083L160.966 357.491H172.745ZM172.897 404.784L166.873 376.578L160.859 404.784H172.897Z" fill="white" stroke="white" stroke-width="1.12" stroke-miterlimit="10"/>
<path d="M282.761 404.338V367.753C282.74 366.528 282.972 365.312 283.442 364.18C283.912 363.049 284.609 362.026 285.491 361.176C286.351 360.294 287.382 359.597 288.52 359.127C289.659 358.658 290.881 358.426 292.113 358.446H293.531V429.413H287.16C284.028 429.413 281.699 427.744 280.129 424.451L265.548 383.716V421.935C265.554 422.913 265.367 423.882 264.997 424.787C264.628 425.692 264.084 426.516 263.396 427.21C262.708 427.905 261.89 428.457 260.988 428.835C260.086 429.213 259.119 429.409 258.141 429.413H254.84V358.481H259.641C263.531 358.481 266.467 360.507 268.385 364.603L282.761 404.338Z" fill="white" stroke="white" stroke-width="1.12" stroke-miterlimit="10"/>
<path d="M336.935 358.481V369.189H326.227V421.917C326.229 422.894 326.038 423.862 325.665 424.764C325.293 425.667 324.745 426.488 324.055 427.178C323.364 427.869 322.544 428.417 321.641 428.789C320.738 429.162 319.77 429.353 318.793 429.35H315.456V369.207H304.748V358.499L336.935 358.481Z" fill="white" stroke="white" stroke-width="1.12" stroke-miterlimit="10"/>
<path d="M363.794 398.422L348.071 358.481H354.389C357.574 358.481 359.903 360.15 361.42 363.442L369.201 385.635L376.938 363.487C378.455 360.15 380.784 358.481 383.969 358.481H390.287L374.564 398.422V421.935C374.581 422.913 374.396 423.885 374.022 424.789C373.647 425.693 373.091 426.511 372.387 427.191C371.693 427.903 370.859 428.465 369.938 428.839C369.016 429.214 368.027 429.394 367.033 429.368H363.794V398.422Z" fill="white" stroke="white" stroke-width="1.12" stroke-miterlimit="10"/>
<defs>
<radialGradient id="paint0_radial_71_996" cx="0" cy="0" r="1" gradientUnits="userSpaceOnUse" gradientTransform="translate(328.837 27.0579) rotate(90) scale(431.732 431.732)">
<stop stop-color="#F5F6F7"/>
<stop offset="0.45" stop-color="#F9FAFA"/>
<stop offset="0.72" stop-color="white"/>
</radialGradient>
<linearGradient id="paint1_linear_71_996" x1="212.357" y1="60.0359" x2="134.757" y2="126.404" gradientUnits="userSpaceOnUse">
<stop stop-color="#4AB8C3"/>
<stop offset="1" stop-color="#98C73C"/>
</linearGradient>
<linearGradient id="paint2_linear_71_996" x1="209.022" y1="162.375" x2="252.972" y2="162.375" gradientUnits="userSpaceOnUse">
<stop stop-color="#4DBABB"/>
<stop offset="1" stop-color="#96C740"/>
</linearGradient>
<linearGradient id="paint3_linear_71_996" x1="238.053" y1="143.01" x2="269.426" y2="129.711" gradientUnits="userSpaceOnUse">
<stop stop-color="#5FBDA7"/>
<stop offset="1" stop-color="#8CC456"/>
</linearGradient>
<linearGradient id="paint4_linear_71_996" x1="239.016" y1="178.329" x2="278.657" y2="192.095" gradientUnits="userSpaceOnUse">
<stop stop-color="#5EBDAA"/>
<stop offset="1" stop-color="#8FC64F"/>
</linearGradient>
<linearGradient id="paint5_linear_71_996" x1="195.817" y1="162.105" x2="203.169" y2="164.652" gradientUnits="userSpaceOnUse">
<stop stop-color="#5BBCB0"/>
<stop offset="1" stop-color="#90C44E"/>
</linearGradient>
<linearGradient id="paint6_linear_71_996" x1="225.923" y1="135.685" x2="232.196" y2="137.863" gradientUnits="userSpaceOnUse">
<stop stop-color="#5BBCB0"/>
<stop offset="1" stop-color="#90C44E"/>
</linearGradient>
<linearGradient id="paint7_linear_71_996" x1="227.971" y1="182.902" x2="237.22" y2="186.118" gradientUnits="userSpaceOnUse">
<stop stop-color="#5BBCB0"/>
<stop offset="1" stop-color="#90C44E"/>
</linearGradient>
<linearGradient id="paint8_linear_71_996" x1="267.875" y1="152.296" x2="276.486" y2="155.283" gradientUnits="userSpaceOnUse">
<stop stop-color="#5BBCB0"/>
<stop offset="1" stop-color="#90C44E"/>
</linearGradient>
<linearGradient id="paint9_linear_71_996" x1="270.373" y1="168.068" x2="281.26" y2="171.854" gradientUnits="userSpaceOnUse">
<stop stop-color="#5BBCB0"/>
<stop offset="1" stop-color="#90C44E"/>
</linearGradient>
</defs>
</svg>
