<svg width="1032" height="899" viewBox="0 0 1032 899" fill="none" xmlns="http://www.w3.org/2000/svg">
<mask id="mask0_71_991" style="mask-type:alpha" maskUnits="userSpaceOnUse" x="0" y="0" width="1032" height="899">
<rect width="1032" height="899" fill="#41BCE8"/>
</mask>
<g mask="url(#mask0_71_991)">
<path d="M-132.009 526.48C367.368 131.77 590.078 1141.8 1247.55 0M-128.893 543.25C387.868 125.98 610.25 1137.01 1254.11 29.7481M-125.941 560.221C408.204 120.19 630.258 1132.42 1260.51 59.2963M-122.825 576.991C428.539 114.4 650.43 1127.83 1266.9 89.0443M-119.71 593.762C448.875 108.61 670.602 1123.04 1273.46 118.792M-116.593 610.732C469.375 102.82 690.774 1118.44 1279.86 148.54M-113.642 627.503C489.711 97.0302 710.945 1113.85 1286.25 178.089M-110.525 644.473C510.047 91.2404 730.954 1109.06 1292.81 207.837M-107.409 661.244C530.383 85.4507 751.126 1104.47 1299.21 237.585M-104.457 678.214C550.719 79.6609 771.297 1099.88 1305.77 267.133M-101.341 694.985C571.219 73.8708 791.47 1095.09 1312.17 296.881M-98.2252 711.955C591.555 68.081 811.641 1090.49 1318.56 326.629M-95.1094 728.726C611.89 62.2913 831.649 1085.7 1325.12 356.377M-92.1573 745.696C632.226 56.7009 851.821 1081.11 1331.35 386.125M-89.0415 762.467C652.562 50.7113 871.993 1076.52 1337.91 415.673M-85.9251 779.238C673.062 44.9215 892.165 1071.73 1344.47 445.421M-82.8099 796.208C693.397 39.1317 912.172 1067.13 1350.87 474.97M-79.8572 812.979C713.734 33.3418 932.345 1062.34 1357.27 504.718M-76.7419 829.949C734.069 27.5519 952.516 1057.75 1363.83 534.466M-73.6256 846.72C754.569 21.762 972.688 1052.96 1370.22 564.014M-70.5093 863.69C774.906 15.972 992.86 1048.57 1376.78 593.962M-67.5577 880.46C795.241 10.1821 1012.87 1043.77 1383.01 623.51M-64.4419 897.431C815.577 4.59188 1033.04 1039.18 1389.57 653.258M-61.3255 914.202C836.077 -1.3977 1053.21 1034.39 1395.97 682.806M-58.3739 930.972C856.412 -7.18766 1073.38 1029.8 1402.53 712.554M-55.2575 947.943C876.749 -12.9773 1093.39 1025.01 1408.93 742.302M-52.1417 964.713C897.084 -18.7672 1113.56 1020.22 1415.32 771.851M-49.0254 981.684C917.585 -24.557 1133.74 1015.82 1421.88 801.798M-46.0738 998.455C937.756 -30.3468 1153.74 1011.03 1428.28 831.347M-42.9575 1015.42C958.256 -36.137 1174.08 1006.44 1434.67 861.094M-39.8417 1032.2C978.592 -41.9265 1194.25 1001.65 1441.23 890.643M-36.7259 1049.17C999.092 -47.7165 1214.42 997.057 1447.79 920.591" stroke="#F9F9F9" stroke-opacity="0.15" stroke-width="3" stroke-miterlimit="10" stroke-linecap="round" stroke-linejoin="round" stroke-dasharray="1 1"/>
<path d="M-276 641.079C222.229 335.613 275.037 2084.56 1372.03 560.221M-274.688 665.636C239.613 311.855 305.704 2067.98 1376.45 592.165M-273.54 690.193C256.996 287.897 336.044 2051.21 1380.55 624.109M-272.228 714.75C274.545 264.138 366.712 2034.64 1384.98 655.853M-270.916 739.507C291.929 240.58 397.38 2018.27 1389.25 687.997M-269.768 764.064C309.313 216.621 427.72 2001.7 1393.35 719.941M-268.456 788.621C326.86 192.863 458.388 1985.13 1397.77 751.886M-267.144 813.378C344.408 169.104 489.055 1968.76 1402.04 784.029M-265.996 837.935C361.628 145.346 519.395 1952.19 1406.14 815.774M-264.684 862.492C379.176 121.587 550.063 1935.62 1410.57 847.718M-263.372 887.049C396.724 97.6293 580.731 1918.84 1414.83 879.662M-262.224 911.806C413.944 74.0706 611.07 1902.47 1418.93 911.806M-260.912 936.363C431.492 50.3121 641.739 1885.9 1423.36 943.75M-259.6 960.92C449.04 26.3539 672.406 1869.33 1427.62 975.694M-258.452 985.677C466.259 2.79528 702.746 1852.96 1431.72 1007.64M-257.14 1010.23C483.808 -20.9635 733.414 1836.39 1436.15 1039.58M-255.828 1034.79C501.191 -44.9215 763.918 1819.82 1440.41 1071.53M-254.68 1059.35C518.575 -68.6799 794.421 1803.05 1444.51 1103.47M-253.368 1084.1C536.123 -92.4384 825.09 1786.68 1448.94 1135.61M-252.055 1108.66C553.672 -116.197 855.758 1770.11 1453.21 1167.36M-250.908 1133.22C571.055 -139.955 886.261 1753.53 1457.47 1199.3M-249.596 1157.98C588.439 -163.714 916.765 1737.16 1461.73 1231.45M-248.284 1182.53C605.987 -187.472 947.433 1720.59 1466 1263.39M-247.136 1207.09C623.371 -211.231 977.937 1704.02 1470.1 1295.34M-245.824 1231.65C640.754 -235.189 1008.44 1687.25 1474.53 1327.08M-244.512 1256.4C658.303 -258.748 1039.11 1670.88 1478.79 1359.22M-243.364 1280.96C675.686 -282.506 1069.61 1654.31 1483.05 1391.17M-242.052 1305.52C693.07 -306.464 1100.12 1637.74 1487.32 1423.11M-240.74 1330.27C710.618 -330.023 1130.78 1621.37 1491.58 1455.26M-239.592 1354.83C728.002 -353.981 1161.29 1604.79 1495.68 1487M-238.28 1379.39C745.386 -377.739 1191.79 1588.22 1500.11 1518.94M-236.968 1403.95C762.934 -401.498 1222.46 1571.65 1504.37 1550.89" stroke="#F9F9F9" stroke-opacity="0.15" stroke-width="0.25" stroke-miterlimit="10" stroke-linecap="round" stroke-linejoin="round"/>
<path d="M1326.43 1477.02C786.55 1715.6 752.274 1164.96 -70.0169 1607.19M1328.4 1458.85C772.282 1717.4 731.61 1145.8 -71.493 1573.85M1330.21 1440.68C757.686 1719.19 710.946 1126.63 -73.1333 1540.31M1332.17 1422.51C743.254 1720.79 690.282 1107.46 -74.773 1506.77M1333.98 1404.14C728.822 1722.39 669.618 1088.1 -76.4133 1473.22M1335.95 1385.98C714.39 1724.19 648.954 1068.93 -77.8893 1439.88M1337.91 1367.81C699.958 1725.98 628.291 1049.76 -79.3648 1406.54M1339.72 1349.64C685.526 1727.78 607.627 1030.6 -81.0051 1373M1341.69 1331.27C671.094 1729.38 587.127 1011.23 -82.4812 1339.46M1343.65 1313.1C656.662 1731.17 566.463 992.066 -83.9573 1305.92M1345.46 1294.94C642.231 1732.97 545.799 972.899 -85.597 1272.58M1347.43 1276.77C627.798 1734.57 525.135 953.733 -87.2372 1239.23M1349.23 1258.6C613.203 1736.56 504.472 934.566 -88.7127 1205.69M1351.2 1240.23C598.935 1737.96 483.807 915.2 -90.353 1172.15M1353.17 1222.06C584.503 1739.76 463.144 896.034 -91.8291 1138.81M1354.97 1203.9C569.907 1741.56 442.479 876.867 -93.4694 1105.27M1356.94 1185.73C555.475 1743.35 421.816 857.501 -94.9449 1071.73M1358.91 1167.36C541.043 1744.95 401.152 838.334 -96.421 1038.38M1360.71 1149.19C526.611 1746.75 380.652 819.168 -98.0613 1004.84M1362.68 1131.02C512.179 1748.54 359.988 800.001 -99.5374 971.501M1364.65 1112.85C497.912 1750.34 339.324 780.635 -101.013 937.96M1366.45 1094.49C483.316 1751.94 318.661 761.469 -102.653 904.419M1368.42 1076.32C468.884 1753.53 297.997 742.103 -104.293 870.877M1370.22 1058.15C454.452 1755.33 277.333 722.936 -105.769 837.536M1372.19 1039.98C440.02 1757.13 256.669 703.77 -107.409 804.194M1374.16 1021.81C425.587 1758.92 236.005 684.603 -108.885 770.653M1375.96 1003.45C411.156 1760.52 215.341 665.437 -110.525 737.111M1377.93 985.278C396.724 1762.32 194.677 646.071 -112.001 703.77M1379.9 967.109C382.292 1764.12 174.013 626.904 -113.641 670.228M1381.7 948.941C367.86 1765.91 153.35 607.738 -115.117 636.887M1383.67 930.573C353.428 1767.51 132.849 588.371 -116.757 603.146M1385.47 912.405C338.832 1769.31 112.022 569.205 -118.397 569.804" stroke="#F9F9F9" stroke-opacity="0.15" stroke-miterlimit="10" stroke-linecap="round" stroke-linejoin="round" stroke-dasharray="1 1"/>
</g>
</svg>
