<svg width="89" height="88" viewBox="0 0 89 88" fill="none" xmlns="http://www.w3.org/2000/svg">
<path d="M87.1579 44C87.1579 44.1814 87.0807 44.4332 86.8368 44.7966C86.5928 45.1602 86.2508 45.5371 85.8406 45.9748C85.8047 46.0131 85.7683 46.0518 85.7314 46.0911C85.3692 46.4766 84.961 46.9109 84.6285 47.3558C84.264 47.8436 83.9067 48.4496 83.8161 49.1531C83.7258 49.8537 83.914 50.5291 84.1396 51.0935C84.3453 51.6081 84.6259 52.1319 84.875 52.5967C84.9005 52.6442 84.9256 52.6911 84.9503 52.7373C85.2321 53.2649 85.4639 53.7162 85.6052 54.1295C85.7464 54.5425 85.7563 54.8052 85.7101 54.9799C85.6648 55.1512 85.5263 55.3746 85.1941 55.6653C84.8626 55.9555 84.4314 56.2342 83.9192 56.5527C83.8693 56.5838 83.8184 56.6153 83.7669 56.6473C83.3188 56.925 82.8165 57.2363 82.3835 57.5739C81.9043 57.9475 81.3979 58.4357 81.1228 59.0834C80.8472 59.7323 80.8492 60.4343 80.916 61.0374C80.9772 61.5901 81.1087 62.1732 81.2255 62.6917C81.2371 62.7429 81.2485 62.7935 81.2597 62.8433C81.3912 63.4301 81.4957 63.9318 81.5233 64.3726C81.5509 64.8144 81.4913 65.0738 81.4016 65.2303C81.3147 65.3818 81.1245 65.5604 80.7274 65.7548C80.331 65.9488 79.8415 66.1061 79.2617 66.2825C79.2131 66.2973 79.1638 66.3123 79.1139 66.3274C78.6006 66.483 78.0224 66.6582 77.5049 66.8809C76.9404 67.1238 76.3241 67.4725 75.8904 68.0369C75.4597 68.5974 75.278 69.2737 75.185 69.8766C75.0999 70.428 75.0755 71.024 75.0539 71.5523C75.0518 71.6036 75.0498 71.6543 75.0477 71.7042C75.0226 72.301 74.9935 72.806 74.9062 73.2327C74.8189 73.6591 74.695 73.8903 74.5671 74.0176C74.4411 74.1431 74.2071 74.2675 73.7702 74.3544C73.3346 74.441 72.8186 74.4688 72.2114 74.4922C72.1597 74.4941 72.1072 74.4961 72.0541 74.4981C71.5168 74.5181 70.9131 74.5407 70.3549 74.6232C69.7451 74.7135 69.061 74.8908 68.4943 75.3162C67.9245 75.7439 67.5695 76.3506 67.3211 76.91C67.0942 77.4212 66.9157 77.9915 66.7578 78.496C66.7425 78.5449 66.7274 78.5932 66.7125 78.6407C66.5334 79.2107 66.3744 79.6898 66.1785 80.0784C65.9834 80.4654 65.802 80.6572 65.6403 80.7486C65.4739 80.8427 65.2066 80.9021 64.7624 80.8754C64.3181 80.8487 63.8134 80.7453 63.2219 80.6148C63.1723 80.6039 63.1221 80.5927 63.0713 80.5815C62.5471 80.4652 61.9577 80.3345 61.395 80.2732C60.7795 80.2062 60.0749 80.2056 59.416 80.4674C58.749 80.7324 58.2435 81.2242 57.8531 81.7028C57.4908 82.1469 57.1638 82.6623 56.8755 83.1166C56.853 83.1521 56.8307 83.1873 56.8087 83.222C56.4868 83.7284 56.2091 84.1529 55.9184 84.4821C55.6288 84.8101 55.4018 84.9542 55.2185 85.0045C55.0402 85.0534 54.775 85.0452 54.3592 84.9065C53.9421 84.7673 53.4863 84.5371 52.951 84.2563C52.9078 84.2337 52.8641 84.2108 52.8199 84.1875C52.3448 83.9377 51.8081 83.6556 51.2777 83.4497C50.699 83.2251 50.0142 83.0437 49.3033 83.1358C48.5948 83.2277 47.9828 83.5728 47.4828 83.9345C47.0256 84.2652 46.5828 84.6704 46.1914 85.0286C46.1551 85.0619 46.1192 85.0947 46.0837 85.1271C45.6426 85.53 45.2648 85.8645 44.899 86.1035C44.5357 86.3409 44.2761 86.4211 44.0789 86.4211C43.8823 86.4211 43.6196 86.3401 43.2504 86.0997C42.8798 85.8584 42.4965 85.5211 42.0518 85.1173C42.0145 85.0834 41.9766 85.049 41.9384 85.0142C41.5451 84.6563 41.1019 84.253 40.6474 83.925C40.15 83.5661 39.5379 83.22 38.8318 83.1347C38.1325 83.0503 37.4541 83.2325 36.8806 83.4541C36.3551 83.657 35.8203 83.9337 35.3441 84.1801C35.298 84.2039 35.2525 84.2275 35.2075 84.2507C34.6701 84.528 34.209 84.7573 33.7878 84.8973C33.3654 85.0376 33.0972 85.0476 32.9212 85.0015C32.7486 84.9563 32.5235 84.8181 32.2291 84.4891C31.9354 84.1607 31.6518 83.7344 31.3261 83.2279C31.2981 83.1843 31.2697 83.1401 31.2409 83.0952C30.9537 82.6474 30.6306 82.1437 30.2794 81.7097C29.8952 81.235 29.3977 80.7394 28.7454 80.4717C28.094 80.2043 27.3897 80.2061 26.7801 80.2722C26.2223 80.3327 25.6339 80.462 25.1084 80.5775C25.0556 80.5891 25.0035 80.6005 24.9521 80.6118C24.3575 80.7417 23.8463 80.8454 23.3963 80.8725C22.9446 80.8997 22.6736 80.8401 22.5077 80.747C22.3479 80.6574 22.1672 80.4676 21.9722 80.0811C21.7764 79.6931 21.6176 79.2139 21.4384 78.6435C21.4234 78.5956 21.4082 78.547 21.3928 78.4977C21.235 77.9931 21.0566 77.4226 20.8299 76.9114C20.5816 76.3516 20.2266 75.7441 19.6565 75.3162C19.0915 74.892 18.4108 74.7133 17.8027 74.6217C17.2435 74.5375 16.6393 74.5138 16.1019 74.4929C16.0518 74.4909 16.0023 74.489 15.9535 74.487C15.3486 74.4627 14.8338 74.4347 14.3976 74.3483C13.9602 74.2618 13.7212 74.1378 13.5902 74.0101C13.4644 73.8875 13.3407 73.662 13.2537 73.2382C13.1666 72.8135 13.1385 72.3095 13.1148 71.7117C13.1127 71.6608 13.1107 71.6091 13.1087 71.5567C13.0884 71.0286 13.0654 70.432 12.9812 69.8802C12.889 69.2758 12.7073 68.5965 12.2727 68.0346C11.838 67.4724 11.2237 67.1242 10.6594 66.8811C10.1419 66.6581 9.56428 66.4827 9.05122 66.327C9.002 66.312 8.95338 66.2973 8.90546 66.2827C8.32661 66.1062 7.83688 65.9489 7.43873 65.7544C7.04018 65.5597 6.84367 65.379 6.75138 65.2217C6.65996 65.066 6.59981 64.8126 6.62683 64.3803C6.65393 63.9467 6.75889 63.4524 6.89272 62.869C6.90426 62.8187 6.91604 62.7677 6.92797 62.7159C7.04676 62.201 7.18092 61.6194 7.24445 61.0645C7.31418 60.4554 7.31694 59.752 7.04663 59.0942C6.77472 58.4325 6.27187 57.9345 5.78842 57.5525C5.33993 57.1981 4.81957 56.8775 4.35955 56.5941C4.3217 56.5708 4.28425 56.5477 4.24729 56.5249C3.733 56.2075 3.30118 55.9328 2.96693 55.6457C2.63234 55.3582 2.49174 55.1374 2.44436 54.9673C2.3984 54.8024 2.40467 54.5498 2.545 54.1424C2.68568 53.734 2.91821 53.2869 3.20294 52.7594C3.22569 52.7172 3.24882 52.6745 3.27223 52.6312C3.52532 52.1636 3.8121 51.6337 4.02132 51.11C4.24929 50.5394 4.43629 49.8578 4.34113 49.148C4.24637 48.4411 3.89078 47.8335 3.52393 47.3418C3.18824 46.8919 2.7771 46.4555 2.41357 46.0697C2.37894 46.0329 2.34473 45.9966 2.31106 45.9608C1.90118 45.5247 1.56107 45.1514 1.31845 44.7907C1.07666 44.4313 1 44.1817 1 44C1 43.8186 1.07725 43.5668 1.32107 43.2035C1.56512 42.8398 1.90709 42.4629 2.31733 42.0252C2.3532 41.987 2.38968 41.9481 2.42664 41.9088C2.7888 41.5234 3.19692 41.0891 3.52939 40.6442C3.89392 40.1565 4.25118 39.5504 4.3418 38.847C4.43206 38.1463 4.24389 37.471 4.01829 36.9066C3.8126 36.3919 3.53197 35.8682 3.28289 35.4033C3.25744 35.3558 3.23232 35.309 3.20764 35.2628C2.92581 34.7352 2.69399 34.2838 2.55268 33.8706C2.41146 33.4576 2.40156 33.1948 2.44779 33.0201C2.49297 32.8494 2.63135 32.6262 2.96428 32.3353C3.29643 32.0451 3.72847 31.7663 4.24153 31.4478C4.29149 31.4167 4.34236 31.3853 4.39395 31.3533C4.8429 31.0756 5.34609 30.7642 5.7798 30.4266C6.25951 30.0531 6.76687 29.5648 7.04212 28.9167C7.31795 28.2672 7.31525 27.5647 7.24771 26.9615C7.18579 26.4086 7.05342 25.8253 6.93574 25.3068C6.92413 25.2556 6.91267 25.2051 6.90143 25.1553C6.76899 24.5686 6.66381 24.0669 6.63567 23.6262C6.60746 23.1845 6.66689 22.9257 6.75635 22.7698C6.84344 22.618 7.03349 22.4394 7.42996 22.2451C7.82578 22.0512 8.31478 21.8939 8.89447 21.7175C8.94392 21.7025 8.99413 21.6873 9.04497 21.6719C9.55759 21.5165 10.1348 21.3416 10.6521 21.1196C11.2178 20.8768 11.8341 20.5292 12.2709 19.9679C12.7074 19.407 12.8917 18.7293 12.9857 18.1247C13.0723 17.5684 13.096 16.9675 13.117 16.4362C13.1189 16.3883 13.1208 16.341 13.1227 16.2944C13.1469 15.6968 13.1747 15.1921 13.2612 14.7653C13.3475 14.3391 13.4707 14.109 13.5979 13.9824C13.7241 13.8567 13.9579 13.7324 14.3938 13.6456C14.8285 13.559 15.3434 13.5313 15.9493 13.5079C16.0009 13.5059 16.0532 13.504 16.1062 13.502C16.6422 13.4819 17.2447 13.4594 17.8015 13.3768C18.4099 13.2865 19.0931 13.1089 19.6584 12.6825C20.2257 12.2547 20.5793 11.6481 20.827 11.0895C21.0526 10.5805 21.2309 10.0123 21.3887 9.50916C21.4045 9.45877 21.4201 9.40903 21.4355 9.36007C21.615 8.79042 21.7745 8.31113 21.9709 7.9225C22.1666 7.53536 22.3484 7.34309 22.5105 7.25145C22.6768 7.15741 22.9445 7.09795 23.3895 7.12468C23.8344 7.1514 24.3399 7.25485 24.9318 7.38531C24.9817 7.39631 25.0323 7.40753 25.0835 7.41889C25.6078 7.53506 26.1969 7.66561 26.7588 7.72684C27.3736 7.79383 28.0781 7.79463 28.7362 7.53215C29.4012 7.26686 29.9055 6.77484 30.2951 6.29693C30.6558 5.85432 30.9821 5.34073 31.27 4.88744C31.2933 4.85075 31.3164 4.81447 31.3392 4.77864C31.6614 4.27243 31.9397 3.84779 32.2309 3.51851C32.5212 3.19035 32.7487 3.04596 32.9323 2.99559C33.1107 2.94667 33.3763 2.95484 33.7928 3.09368C34.2103 3.23284 34.6666 3.46314 35.2017 3.74372C35.2461 3.76702 35.2911 3.79071 35.3368 3.81469C35.8105 4.06379 36.3451 4.34486 36.8723 4.55001C37.4489 4.77437 38.1325 4.95673 38.8414 4.86414C39.5469 4.77199 40.1576 4.42622 40.6562 4.06568C41.1098 3.73768 41.5508 3.33593 41.9418 2.97979C41.9809 2.94426 42.0194 2.90919 42.0573 2.87469C42.5001 2.47234 42.8809 2.13737 43.2494 1.89812C43.6157 1.66028 43.8786 1.57898 44.0789 1.57898C44.278 1.57898 44.5418 1.66057 44.9104 1.90046C45.2805 2.14132 45.663 2.47837 46.1059 2.88175C46.1452 2.91756 46.1851 2.95398 46.2255 2.99089C46.6154 3.34682 47.0542 3.74752 47.5033 4.07345C47.9975 4.43212 48.6071 4.77954 49.3111 4.86524C50.0082 4.9501 50.6862 4.76704 51.2584 4.54602C51.7817 4.34389 52.3156 4.0685 52.7919 3.82287C52.8396 3.79824 52.8868 3.77391 52.9333 3.74998C53.4722 3.47285 53.9358 3.24324 54.359 3.10311C54.7839 2.9624 55.0536 2.95247 55.2297 2.99858C55.4023 3.04379 55.6274 3.18195 55.9217 3.51101C56.2155 3.83938 56.499 4.26568 56.8248 4.77217C56.8527 4.81569 56.8811 4.8599 56.9098 4.90465C57.1971 5.35258 57.5202 5.8563 57.8715 6.29034C58.2556 6.76502 58.7532 7.26065 59.4054 7.5284C60.0568 7.79582 60.7611 7.79398 61.3707 7.72788C61.9285 7.66739 62.5169 7.53809 63.0423 7.42263C63.0951 7.41102 63.1473 7.39955 63.1988 7.38831C63.7933 7.25838 64.3045 7.15471 64.7546 7.1276C65.2063 7.10039 65.4772 7.15994 65.6432 7.25304C65.803 7.34272 65.9836 7.53248 66.1786 7.91899C66.3744 8.30701 66.5333 8.78615 66.7124 9.35657C66.7274 9.40446 66.7426 9.45309 66.758 9.50235C66.9158 10.007 67.0942 10.5775 67.321 11.0887C67.5693 11.6485 67.9242 12.256 68.4943 12.6839C69.0596 13.1082 69.7409 13.2869 70.3496 13.3784C70.9094 13.4626 71.5146 13.4862 72.0532 13.5072C72.1034 13.5092 72.153 13.5111 72.2019 13.5131C72.808 13.5373 73.3246 13.5654 73.7628 13.6518C74.2022 13.7385 74.4438 13.863 74.5767 13.9918C74.7029 14.1142 74.8266 14.3387 74.9131 14.7615C74.9999 15.1855 75.0273 15.6889 75.0501 16.2868C75.0521 16.3374 75.054 16.3888 75.0559 16.4408C75.0754 16.9692 75.0976 17.5667 75.1817 18.1194C75.2738 18.7248 75.4563 19.4053 75.8941 19.9679C76.3301 20.5283 76.9441 20.8759 77.5086 21.1191C78.0252 21.3416 78.6013 21.5167 79.1129 21.6722C79.1628 21.6874 79.2122 21.7024 79.2608 21.7173C79.8387 21.8937 80.3268 22.0509 80.7231 22.2451C81.1196 22.4394 81.3139 22.6194 81.4049 22.7755C81.4962 22.9323 81.556 23.1868 81.5292 23.6193C81.5023 24.0531 81.3981 24.5472 81.2656 25.1304C81.2545 25.1792 81.2432 25.2287 81.2318 25.2789C81.1138 25.795 80.9806 26.378 80.9181 26.9349C80.8497 27.5446 80.8487 28.247 81.1178 28.9046C81.3892 29.5677 81.891 30.0668 82.3745 30.4498C82.8237 30.8056 83.3449 31.1269 83.8052 31.4105C83.8418 31.4332 83.8781 31.4555 83.914 31.4777C84.4276 31.7948 84.8585 32.0687 85.192 32.3554C85.5257 32.6421 85.6661 32.8625 85.7135 33.0327C85.7595 33.1977 85.7532 33.4503 85.6129 33.8577C85.4722 34.2661 85.2397 34.7132 84.955 35.2407C84.9322 35.2829 84.909 35.3256 84.8856 35.3689C84.6325 35.8365 84.3458 36.3664 84.1366 36.8901C83.9086 37.4607 83.7216 38.1422 83.8168 38.8521C83.9115 39.5589 84.2671 40.1665 84.634 40.6582C84.9696 41.1081 85.3807 41.5445 85.7442 41.9303C85.7789 41.9671 85.8131 42.0035 85.8468 42.0393C86.2567 42.4754 86.5968 42.8487 86.8394 43.2093C87.0812 43.5688 87.1579 43.8184 87.1579 44Z" stroke="#85C25B" stroke-width="2"/>
<path d="M44.079 79.5263C36.9224 79.5263 29.9266 77.4427 23.9761 73.539C18.0257 69.6353 13.3878 64.0869 10.6492 57.5953C7.91045 51.1037 7.19389 43.9605 8.59006 37.0691C9.98624 30.1777 13.4325 23.8475 18.4929 18.8791C23.5534 13.9106 30.0008 10.5271 37.0198 9.15628C44.0389 7.78549 51.3143 8.48903 57.9261 11.1779C64.5379 13.8668 70.1891 18.4203 74.1651 24.2626C78.141 30.1049 80.2632 36.9735 80.2632 44C80.2539 53.4193 76.4386 62.4503 69.6548 69.1107C62.871 75.7712 53.6728 79.5171 44.079 79.5263ZM44.079 8.83306C36.9945 8.83169 30.0688 10.893 24.1776 14.7564C18.2864 18.6198 13.6944 24.1116 10.9823 30.5374C8.27027 36.9632 7.55994 44.0343 8.9412 50.8565C10.3225 57.6786 13.7333 63.9454 18.7422 68.8643C23.7512 73.7831 30.1334 77.1331 37.0816 78.4906C44.0298 79.8481 51.232 79.1521 57.7773 76.4906C64.3227 73.8291 69.9171 69.3217 73.8532 63.5384C77.7892 57.7551 79.8901 50.9556 79.8901 44C79.8789 34.6777 76.1026 25.7403 69.3893 19.1478C62.6761 12.5553 53.5739 8.84586 44.079 8.83306Z" fill="white"/>
<path d="M44.079 12.421L45.2036 14.4169L47.3685 14.9343L45.9065 16.6641L46.1174 19L44.079 18.076L42.0618 19L42.2515 16.6641L40.7896 14.9343L42.9544 14.4169L44.079 12.421Z" fill="#85C25B"/>
<path d="M30.9105 15.0526L32.0599 17.0552L34.2105 17.567L32.765 19.3174L32.9554 21.6316L30.9105 20.7267L28.8867 21.6316L29.0771 19.3174L27.6316 17.567L29.7823 17.0552L30.9105 15.0526Z" fill="#85C25B"/>
<path d="M55.9316 15.0526L57.0599 17.0552L59.2105 17.567L57.765 19.3174L57.9624 21.6316L55.9316 20.7267L53.8867 21.6316L54.0771 19.3174L52.6316 17.567L54.7893 17.0552L55.9316 15.0526Z" fill="#85C25B"/>
<path d="M44.079 69L45.2036 70.9981L47.3685 71.5087L45.9065 73.27L46.1174 75.5789L44.079 74.6539L42.0618 75.5789L42.2515 73.27L40.7896 71.5087L42.9544 70.9981L44.079 69Z" fill="#85C25B"/>
<path d="M55.9316 72.9474L54.7893 70.947L52.6316 70.4284L54.0771 68.6873L53.8867 66.3684L55.9316 67.2797L57.9624 66.3684L57.765 68.6873L59.2105 70.4284L57.0599 70.947L55.9316 72.9474Z" fill="#85C25B"/>
<path d="M30.9105 72.9474L29.7823 70.947L27.6316 70.4284L29.0771 68.6873L28.8867 66.3684L30.9105 67.2797L32.9554 66.3684L32.765 68.6873L34.2105 70.4284L32.0599 70.947L30.9105 72.9474Z" fill="#85C25B"/>
<path d="M56.72 29.5136L36.68 57.4736H29.8L49.88 29.5136H56.72ZM50 53.6336C50.32 53.9803 50.72 54.1536 51.2 54.1536C51.68 54.1536 52.08 53.9803 52.4 53.6336C52.72 53.2603 52.88 52.7803 52.88 52.1936C52.88 51.607 52.72 51.127 52.4 50.7536C52.08 50.3536 51.68 50.1536 51.2 50.1536C50.7467 50.1536 50.36 50.3536 50.04 50.7536C49.72 51.127 49.56 51.607 49.56 52.1936C49.56 52.7803 49.7067 53.2603 50 53.6336ZM57.12 52.1936C57.12 53.767 56.56 55.1003 55.44 56.1936C54.32 57.2603 52.9067 57.7936 51.2 57.7936C49.52 57.7936 48.12 57.247 47 56.1536C45.88 55.0603 45.32 53.7403 45.32 52.1936C45.32 50.6203 45.88 49.287 47 48.1936C48.12 47.1003 49.52 46.5536 51.2 46.5536C52.9067 46.5536 54.32 47.1003 55.44 48.1936C56.56 49.287 57.12 50.6203 57.12 52.1936ZM34.24 37.2736C34.56 37.6203 34.96 37.7936 35.44 37.7936C35.92 37.7936 36.32 37.6203 36.64 37.2736C36.96 36.9003 37.12 36.4203 37.12 35.8336C37.12 35.247 36.96 34.767 36.64 34.3936C36.32 33.9936 35.92 33.7936 35.44 33.7936C34.9867 33.7936 34.6 33.9936 34.28 34.3936C33.96 34.767 33.8 35.247 33.8 35.8336C33.8 36.4203 33.9467 36.9003 34.24 37.2736ZM41.36 35.8336C41.36 37.407 40.8 38.7403 39.68 39.8336C38.56 40.9003 37.1467 41.4336 35.44 41.4336C33.76 41.4336 32.36 40.887 31.24 39.7936C30.12 38.7003 29.56 37.3803 29.56 35.8336C29.56 34.2603 30.12 32.927 31.24 31.8336C32.36 30.7403 33.76 30.1936 35.44 30.1936C37.1467 30.1936 38.56 30.7403 39.68 31.8336C40.8 32.927 41.36 34.2603 41.36 35.8336Z" fill="#85C25B"/>
</svg>
