<svg width="458" height="264" viewBox="0 0 458 264" fill="none" xmlns="http://www.w3.org/2000/svg">
<path d="M246.048 66.0957C317.727 208.712 312.204 200.489 317.856 202.351C323.509 204.213 318.574 205.246 412.146 158.1C494.891 116.431 457.311 -9.31503 365.802 0.549202C345.898 2.70643 343.118 6.08058 250.522 52.7283C249.351 53.3105 248.306 54.1185 247.446 55.1058C246.587 56.0932 245.931 57.2406 245.515 58.4824C245.1 59.7241 244.933 61.0358 245.024 62.3422C245.116 63.6486 245.464 64.9241 246.048 66.0957ZM338.11 158.285C385.411 136.307 439.801 122.386 437.316 73.6367C439.427 86.9438 437.255 100.578 431.115 112.568C424.975 124.557 415.184 134.279 403.161 140.326C307.656 188.412 334.888 198.535 268.29 65.9666C276.079 62.1131 309.497 171.523 338.091 158.248L338.11 158.285Z" fill="url(#paint0_linear_1483_266)"/>
<path d="M212.947 66.0957C140.931 208.712 146.481 200.489 140.802 202.351C135.123 204.213 140.08 205.246 46.0695 158.1C-37.0641 116.431 0.691905 -9.31503 92.6309 0.549202C112.628 2.70643 115.421 6.08058 208.452 52.7282C209.629 53.3105 210.679 54.1185 211.542 55.1058C212.405 56.0932 213.065 57.2406 213.482 58.4824C213.9 59.7241 214.067 61.0357 213.976 62.3422C213.884 63.6486 213.534 64.9241 212.947 66.0957ZM120.453 158.285C72.9297 136.307 18.2843 122.386 20.7816 73.6367C18.6602 86.9438 20.8419 100.578 27.011 112.568C33.1801 124.557 43.0165 134.279 55.0969 140.326C151.05 188.412 123.69 198.534 190.601 65.9666C182.776 62.1131 149.2 171.523 120.472 158.248L120.453 158.285Z" fill="url(#paint1_linear_1483_266)"/>
<path d="M216 138.5C216 142.09 219.134 145 223 145C226.866 145 230 142.09 230 138.5C230 134.91 226.866 132 223 132C219.134 132 216 134.91 216 138.5Z" fill="url(#paint2_linear_1483_266)" stroke="#006838" stroke-width="0.2" stroke-miterlimit="10"/>
<path d="M266 150.5C266 153.538 268.686 156 272 156C275.314 156 278 153.538 278 150.5C278 147.462 275.314 145 272 145C268.686 145 266 147.462 266 150.5Z" fill="url(#paint3_linear_1483_266)" stroke="#006838" stroke-width="0.17" stroke-miterlimit="10"/>
<path d="M180 175.5C180 180.194 183.806 184 188.5 184C193.194 184 197 180.194 197 175.5C197 170.806 193.194 167 188.5 167C183.806 167 180 170.806 180 175.5Z" fill="url(#paint4_linear_1483_266)" stroke="#006838" stroke-width="0.25" stroke-miterlimit="10"/>
<path d="M238 227C238 229.209 239.791 231 242 231C244.209 231 246 229.209 246 227C246 224.791 244.209 223 242 223C239.791 223 238 224.791 238 227Z" fill="url(#paint5_linear_1483_266)" stroke="#006838" stroke-width="0.23" stroke-miterlimit="10"/>
<path d="M298 226C298 228.761 300.239 231 303 231C305.761 231 308 228.761 308 226C308 223.239 305.761 221 303 221C300.239 221 298 223.239 298 226Z" fill="url(#paint6_linear_1483_266)" stroke="#006838" stroke-width="0.23" stroke-miterlimit="10"/>
<path d="M222 192C222 196.418 225.582 200 230 200C234.418 200 238 196.418 238 192C238 187.582 234.418 184 230 184C225.582 184 222 187.582 222 192Z" fill="url(#paint7_linear_1483_266)" stroke="#006838" stroke-width="0.23" stroke-miterlimit="10"/>
<path d="M150 227C150 230.314 152.686 233 156 233C159.314 233 162 230.314 162 227C162 223.686 159.314 221 156 221C152.686 221 150 223.686 150 227Z" fill="url(#paint8_linear_1483_266)" stroke="#006838" stroke-width="0.23" stroke-miterlimit="10"/>
<path d="M120 257C120 260.314 122.686 263 126 263C129.314 263 132 260.314 132 257C132 253.686 129.314 251 126 251C122.686 251 120 253.686 120 257Z" fill="url(#paint9_linear_1483_266)" stroke="#006838" stroke-width="0.23" stroke-miterlimit="10"/>
<path d="M190 257C190 260.314 192.686 263 196 263C199.314 263 202 260.314 202 257C202 253.686 199.314 251 196 251C192.686 251 190 253.686 190 257Z" fill="url(#paint10_linear_1483_266)" stroke="#006838" stroke-width="0.23" stroke-miterlimit="10"/>
<path d="M260 257C260 260.314 262.686 263 266 263C269.314 263 272 260.314 272 257C272 253.686 269.314 251 266 251C262.686 251 260 253.686 260 257Z" fill="url(#paint11_linear_1483_266)" stroke="#006838" stroke-width="0.23" stroke-miterlimit="10"/>
<path d="M322 257C322 260.314 324.686 263 328 263C331.314 263 334 260.314 334 257C334 253.686 331.314 251 328 251C324.686 251 322 253.686 322 257Z" fill="url(#paint12_linear_1483_266)" stroke="#006838" stroke-width="0.23" stroke-miterlimit="10"/>
<path d="M264 195C264 199.418 267.582 203 272 203C276.418 203 280 199.418 280 195C280 190.582 276.418 187 272 187C267.582 187 264 190.582 264 195Z" fill="url(#paint13_linear_1483_266)" stroke="#006838" stroke-width="0.23" stroke-miterlimit="10"/>
<path d="M189 219C189 222.314 191.686 225 195 225C198.314 225 201 222.314 201 219C201 215.686 198.314 213 195 213C191.686 213 189 215.686 189 219Z" fill="url(#paint14_linear_1483_266)" stroke="#006838" stroke-width="0.3" stroke-miterlimit="10"/>
<defs>
<linearGradient id="paint0_linear_1483_266" x1="421.949" y1="158.946" x2="299.417" y2="15.8746" gradientUnits="userSpaceOnUse">
<stop stop-color="#4AB8C3"/>
<stop offset="1" stop-color="#98C73C"/>
</linearGradient>
<linearGradient id="paint1_linear_1483_266" x1="36.2198" y1="158.946" x2="158.663" y2="15.3079" gradientUnits="userSpaceOnUse">
<stop stop-color="#41BCE8"/>
<stop offset="1" stop-color="#03BDFF"/>
</linearGradient>
<linearGradient id="paint2_linear_1483_266" x1="225.303" y1="132.351" x2="221.287" y2="144.833" gradientUnits="userSpaceOnUse">
<stop stop-color="#5BBCB0"/>
<stop offset="1" stop-color="#90C44E"/>
</linearGradient>
<linearGradient id="paint3_linear_1483_266" x1="273.97" y1="145.298" x2="270.602" y2="155.884" gradientUnits="userSpaceOnUse">
<stop stop-color="#5BBCB0"/>
<stop offset="1" stop-color="#90C44E"/>
</linearGradient>
<linearGradient id="paint4_linear_1483_266" x1="191.293" y1="167.468" x2="185.707" y2="183.532" gradientUnits="userSpaceOnUse">
<stop stop-color="#5BBCB0"/>
<stop offset="1" stop-color="#90C44E"/>
</linearGradient>
<linearGradient id="paint5_linear_1483_266" x1="243.307" y1="223.219" x2="240.684" y2="230.781" gradientUnits="userSpaceOnUse">
<stop stop-color="#5BBCB0"/>
<stop offset="1" stop-color="#90C44E"/>
</linearGradient>
<linearGradient id="paint6_linear_1483_266" x1="304.634" y1="221.274" x2="301.355" y2="230.726" gradientUnits="userSpaceOnUse">
<stop stop-color="#5BBCB0"/>
<stop offset="1" stop-color="#90C44E"/>
</linearGradient>
<linearGradient id="paint7_linear_1483_266" x1="232.614" y1="184.439" x2="227.368" y2="199.561" gradientUnits="userSpaceOnUse">
<stop stop-color="#5BBCB0"/>
<stop offset="1" stop-color="#90C44E"/>
</linearGradient>
<linearGradient id="paint8_linear_1483_266" x1="157.961" y1="221.329" x2="154.026" y2="232.671" gradientUnits="userSpaceOnUse">
<stop stop-color="#5BBCB0"/>
<stop offset="1" stop-color="#90C44E"/>
</linearGradient>
<linearGradient id="paint9_linear_1483_266" x1="127.961" y1="251.329" x2="124.026" y2="262.671" gradientUnits="userSpaceOnUse">
<stop stop-color="#5BBCB0"/>
<stop offset="1" stop-color="#90C44E"/>
</linearGradient>
<linearGradient id="paint10_linear_1483_266" x1="197.961" y1="251.329" x2="194.026" y2="262.671" gradientUnits="userSpaceOnUse">
<stop stop-color="#5BBCB0"/>
<stop offset="1" stop-color="#90C44E"/>
</linearGradient>
<linearGradient id="paint11_linear_1483_266" x1="267.961" y1="251.329" x2="264.026" y2="262.671" gradientUnits="userSpaceOnUse">
<stop stop-color="#5BBCB0"/>
<stop offset="1" stop-color="#90C44E"/>
</linearGradient>
<linearGradient id="paint12_linear_1483_266" x1="329.961" y1="251.329" x2="326.026" y2="262.671" gradientUnits="userSpaceOnUse">
<stop stop-color="#5BBCB0"/>
<stop offset="1" stop-color="#90C44E"/>
</linearGradient>
<linearGradient id="paint13_linear_1483_266" x1="274.614" y1="187.439" x2="269.368" y2="202.561" gradientUnits="userSpaceOnUse">
<stop stop-color="#5BBCB0"/>
<stop offset="1" stop-color="#90C44E"/>
</linearGradient>
<linearGradient id="paint14_linear_1483_266" x1="196.976" y1="213.333" x2="193.035" y2="224.667" gradientUnits="userSpaceOnUse">
<stop stop-color="#5BBCB0"/>
<stop offset="1" stop-color="#90C44E"/>
</linearGradient>
</defs>
</svg>
