<svg width="60" height="60" viewBox="0 0 60 60" fill="none" xmlns="http://www.w3.org/2000/svg">
<mask id="path-1-inside-1_662_5276" fill="white">
<path fill-rule="evenodd" clip-rule="evenodd" d="M50.5222 26.1853C50.279 11.6798 39.0633 0 25.2632 0C11.3106 0 0 11.939 0 26.6667C0 33.6168 2.51891 39.946 6.64566 44.6923L4.75331 56.7095L15.9868 51.6165C20.9364 53.3537 25.6074 53.788 30 52.9193"/>
<path d="M50.5222 26.1853C50.279 11.6798 39.0633 0 25.2632 0C11.3106 0 0 11.939 0 26.6667C0 33.6168 2.51891 39.946 6.64566 44.6923L4.75331 56.7095L15.9868 51.6165C20.9364 53.3537 25.6074 53.788 30 52.9193"/>
<path fill-rule="evenodd" clip-rule="evenodd" d="M53.3081 56.5488C50.5476 58.717 47.1264 60 43.4211 60C34.2647 60 26.8421 52.165 26.8421 42.5C26.8421 32.835 34.2647 25 43.4211 25C52.5774 25 60 32.835 60 42.5C60 45.1662 59.4352 47.6932 58.4248 49.9547"/>
<path d="M53.3081 56.5488C50.5476 58.717 47.1264 60 43.4211 60C34.2647 60 26.8421 52.165 26.8421 42.5C26.8421 32.835 34.2647 25 43.4211 25C52.5774 25 60 32.835 60 42.5C60 45.1662 59.4352 47.6932 58.4248 49.9547"/>
<path fill-rule="evenodd" clip-rule="evenodd" d="M58.4248 49.9547L60 60L53.3081 56.5488"/>
<path d="M58.4248 49.9547L60 60L53.3081 56.5488"/>
</mask>
<path fill-rule="evenodd" clip-rule="evenodd" d="M50.5222 26.1853C50.279 11.6798 39.0633 0 25.2632 0C11.3106 0 0 11.939 0 26.6667C0 33.6168 2.51891 39.946 6.64566 44.6923L4.75331 56.7095L15.9868 51.6165C20.9364 53.3537 25.6074 53.788 30 52.9193" fill="white"/>
<path d="M50.5222 26.1853C50.279 11.6798 39.0633 0 25.2632 0C11.3106 0 0 11.939 0 26.6667C0 33.6168 2.51891 39.946 6.64566 44.6923L4.75331 56.7095L15.9868 51.6165C20.9364 53.3537 25.6074 53.788 30 52.9193" fill="white"/>
<path fill-rule="evenodd" clip-rule="evenodd" d="M53.3081 56.5488C50.5476 58.717 47.1264 60 43.4211 60C34.2647 60 26.8421 52.165 26.8421 42.5C26.8421 32.835 34.2647 25 43.4211 25C52.5774 25 60 32.835 60 42.5C60 45.1662 59.4352 47.6932 58.4248 49.9547" fill="white"/>
<path d="M53.3081 56.5488C50.5476 58.717 47.1264 60 43.4211 60C34.2647 60 26.8421 52.165 26.8421 42.5C26.8421 32.835 34.2647 25 43.4211 25C52.5774 25 60 32.835 60 42.5C60 45.1662 59.4352 47.6932 58.4248 49.9547" fill="white"/>
<path fill-rule="evenodd" clip-rule="evenodd" d="M58.4248 49.9547L60 60L53.3081 56.5488" fill="white"/>
<path d="M58.4248 49.9547L60 60L53.3081 56.5488" fill="white"/>
<path d="M6.64566 44.6923L7.13958 44.7701L7.17581 44.54L7.02298 44.3643L6.64566 44.6923ZM4.75331 56.7095L4.2594 56.6317L4.11514 57.5478L4.95977 57.1649L4.75331 56.7095ZM15.9868 51.6165L16.1524 51.1447L15.9631 51.0783L15.7804 51.1611L15.9868 51.6165ZM53.3081 56.5488L53.5373 56.1044L53.2518 55.9572L52.9993 56.1556L53.3081 56.5488ZM58.4248 49.9547L57.9683 49.7507L57.9079 49.8859L57.9309 50.0321L58.4248 49.9547ZM60 60L59.7708 60.4444L60.6466 60.8961L60.494 59.9225L60 60ZM51.0221 26.177C50.7748 11.4243 39.3612 -0.5 25.2632 -0.5V0.5C38.7655 0.5 49.7833 11.9354 50.0223 26.1937L51.0221 26.177ZM25.2632 -0.5C11.0094 -0.5 -0.5 11.6887 -0.5 26.6667H0.5C0.5 12.1893 11.6119 0.5 25.2632 0.5V-0.5ZM-0.5 26.6667C-0.5 33.7389 2.06344 40.1842 6.26834 45.0204L7.02298 44.3643C2.97438 39.7078 0.5 33.4948 0.5 26.6667H-0.5ZM6.15175 44.6146L4.2594 56.6317L5.24722 56.7873L7.13958 44.7701L6.15175 44.6146ZM4.95977 57.1649L16.1933 52.0719L15.7804 51.1611L4.54685 56.2541L4.95977 57.1649ZM15.8213 52.0883C20.8405 53.8499 25.6027 54.2986 30.097 53.4098L29.903 52.4288C25.612 53.2774 21.0323 52.8574 16.1524 51.1447L15.8213 52.0883ZM52.9993 56.1556C50.3219 58.2585 47.0082 59.5 43.4211 59.5V60.5C47.2445 60.5 50.7734 59.1755 53.6169 56.942L52.9993 56.1556ZM43.4211 59.5C34.566 59.5 27.3421 51.9147 27.3421 42.5H26.3421C26.3421 52.4153 33.9635 60.5 43.4211 60.5V59.5ZM27.3421 42.5C27.3421 33.0853 34.566 25.5 43.4211 25.5V24.5C33.9635 24.5 26.3421 32.5847 26.3421 42.5H27.3421ZM43.4211 25.5C52.2761 25.5 59.5 33.0853 59.5 42.5H60.5C60.5 32.5847 52.8786 24.5 43.4211 24.5V25.5ZM59.5 42.5C59.5 45.0951 58.9503 47.5527 57.9683 49.7507L58.8814 50.1586C59.9201 47.8336 60.5 45.2372 60.5 42.5H59.5ZM57.9309 50.0321L59.506 60.0775L60.494 59.9225L58.9188 49.8772L57.9309 50.0321ZM60.2292 59.5556L53.5373 56.1044L53.0789 56.9932L59.7708 60.4444L60.2292 59.5556Z" fill="#90C44E" mask="url(#path-1-inside-1_662_5276)"/>
</svg>
