<svg width="347" height="113" viewBox="0 0 347 113" fill="none" xmlns="http://www.w3.org/2000/svg">
<path d="M52.9211 75.327C16.2903 58.8717 18.6752 59.6008 17.2861 60.1181C15.8969 60.6355 16.6836 59.6698 5.76453 83.4857C-3.89981 104.538 23.3605 123.057 39.7764 106.804C43.3464 103.267 43.3614 102.183 54.1709 78.6132C54.3096 78.3166 54.3872 77.9957 54.3993 77.6692C54.4115 77.3426 54.3578 77.017 54.2415 76.7111C54.1252 76.4053 53.9486 76.1254 53.7219 75.8878C53.4952 75.6502 53.223 75.4595 52.9211 75.327ZM20.2735 71.8783C14.453 83.5596 5.96867 94.7828 14.1692 103.853C11.6536 101.598 9.92743 98.6103 9.24008 95.3213C8.55273 92.0322 8.93976 88.6121 10.3453 85.555C21.4934 61.2513 14.5476 63.557 48.5794 78.8398C47.6533 80.8006 23.7887 64.8084 20.2735 71.8586V71.8783Z" fill="white"/>
<path d="M17.8488 56.7138C56.3618 37.534 54.1412 39.012 54.644 37.4995C55.1469 35.987 55.4257 37.3073 42.6943 12.2696C31.4417 -9.87122 -2.51548 0.184274 0.148311 24.6702C0.73086 29.996 1.64204 30.74 14.239 55.5166C14.3963 55.8301 14.6145 56.1097 14.8811 56.3396C15.1477 56.5695 15.4576 56.7451 15.7929 56.8563C16.1282 56.9675 16.4824 57.0122 16.8352 56.9877C17.188 56.9633 17.5325 56.8702 17.8488 56.7138ZM42.7441 32.0801C36.8091 19.4232 33.0499 4.86962 19.8853 5.53473C23.4788 4.96974 27.1608 5.55079 30.3984 7.19379C33.636 8.83679 36.2614 11.4565 37.8945 14.6739C50.8799 40.2289 53.6134 32.9422 17.814 50.7623C16.7734 48.6783 46.3191 39.7362 42.7341 32.085L42.7441 32.0801Z" fill="white"/>
<path d="M41.2605 59.0492C41.2605 59.0492 46.4985 52.4868 53.4442 55.3689C60.39 58.2511 62.8497 57.3642 63.1633 57.2312C63.477 57.0982 52.9513 73.6718 41.5742 60.5519C41.5742 60.5519 43.8048 58.8423 51.7862 60.1232C51.7862 60.1232 56.352 60.5519 57.9652 59.7981C57.9652 59.7981 58.2241 59.5665 57.6964 59.5468C56.0711 59.4565 54.455 59.2457 52.8617 58.9162C51.6717 58.5614 44.5068 57.783 41.2605 59.0492Z" fill="white" stroke="#006838" stroke-width="0.13" stroke-miterlimit="10"/>
<path d="M55.6001 51.2157C55.6001 51.2157 57.3677 44.9686 63.2081 44.9784C69.0485 44.9883 70.5472 43.6186 70.7314 43.4314C70.9157 43.2442 68.3913 58.2117 56.2922 52.201C56.2922 52.201 57.3726 50.3141 63.4769 48.8706C63.4769 48.8706 66.8776 47.8261 67.8037 46.8112C67.8037 46.8112 67.9183 46.5648 67.5349 46.7077C66.3433 47.1263 65.1217 47.4557 63.8802 47.6931C62.8894 47.7916 57.5419 49.3534 55.6001 51.2157Z" fill="white" stroke="#006838" stroke-width="0.1" stroke-miterlimit="10"/>
<path d="M56.5511 67.0306C56.5511 67.0306 63.3525 62.7394 68.7 67.4887C74.0475 72.2381 76.552 72.1987 76.8756 72.179C77.1992 72.1593 62.4613 83.8406 56.3569 68.484C56.3569 68.484 58.9062 67.6316 65.6976 71.2626C65.6976 71.2626 69.6809 73.0658 71.3738 72.8835C71.3738 72.8835 71.6825 72.7554 71.2144 72.5732C69.7756 71.9895 68.3841 71.2977 67.0519 70.5039C66.0711 69.7895 59.8771 66.8975 56.5511 67.0306Z" fill="white" stroke="#006838" stroke-width="0.12" stroke-miterlimit="10"/>
<path d="M36.5103 62.5374C37.58 62.5374 38.4472 61.6793 38.4472 60.6209C38.4472 59.5624 37.58 58.7043 36.5103 58.7043C35.4406 58.7043 34.5735 59.5624 34.5735 60.6209C34.5735 61.6793 35.4406 62.5374 36.5103 62.5374Z" fill="white" stroke="#006838" stroke-width="0.2" stroke-miterlimit="10"/>
<path d="M51.2485 49.1317C52.1615 49.1317 52.9015 48.3994 52.9015 47.496C52.9015 46.5927 52.1615 45.8604 51.2485 45.8604C50.3355 45.8604 49.5955 46.5927 49.5955 47.496C49.5955 48.3994 50.3355 49.1317 51.2485 49.1317Z" fill="white" stroke="#006838" stroke-width="0.17" stroke-miterlimit="10"/>
<path d="M53.011 73.4549C54.3585 73.4549 55.4508 72.3741 55.4508 71.0408C55.4508 69.7075 54.3585 68.6267 53.011 68.6267C51.6636 68.6267 50.5713 69.7075 50.5713 71.0408C50.5713 72.3741 51.6636 73.4549 53.011 73.4549Z" fill="white" stroke="#006838" stroke-width="0.25" stroke-miterlimit="10"/>
<path d="M72.7431 58.1328C73.997 58.1328 75.0136 57.127 75.0136 55.8862C75.0136 54.6455 73.997 53.6396 72.7431 53.6396C71.4892 53.6396 70.4727 54.6455 70.4727 55.8862C70.4727 57.127 71.4892 58.1328 72.7431 58.1328Z" fill="white" stroke="#006838" stroke-width="0.23" stroke-miterlimit="10"/>
<path d="M74.5553 66.7104C76.1419 66.7104 77.4282 65.4376 77.4282 63.8676C77.4282 62.2976 76.1419 61.0249 74.5553 61.0249C72.9686 61.0249 71.6824 62.2976 71.6824 63.8676C71.6824 65.4376 72.9686 66.7104 74.5553 66.7104Z" fill="white" stroke="#006838" stroke-width="0.3" stroke-miterlimit="10"/>
<path d="M232.83 73.5266C231.746 74.6531 231.147 76.1532 231.162 77.7088C231.177 79.2643 231.804 80.7531 232.909 81.8591C233.442 82.4201 234.086 82.8662 234.802 83.1695C235.517 83.4728 236.288 83.6268 237.066 83.6219H242.801C243.588 83.6063 244.371 83.7524 245.099 84.051C245.827 84.3495 246.485 84.7941 247.031 85.3566C247.593 85.915 248.036 86.5799 248.332 87.3117C248.629 88.0435 248.773 88.827 248.756 89.6152H237.066C235.493 89.6413 233.932 89.34 232.484 88.7307C231.036 88.1214 229.734 87.2178 228.662 86.0785C227.529 84.9222 226.641 83.5542 226.049 82.0544C225.456 80.5545 225.172 78.9529 225.212 77.3431C225.299 74.3856 226.49 71.5648 228.554 69.4247C230.565 67.2892 233.32 65.989 236.263 65.7873C236.569 65.7628 236.877 65.7534 237.185 65.7593H248.264C247.37 61.1762 245.888 57.9249 243.739 56.1006C241.59 54.2763 239.481 53.3641 237.349 53.3641C236.226 53.3762 235.126 53.6853 234.165 54.2595C233.091 54.8751 232.236 55.8034 231.716 56.9176C230.636 58.8147 229.154 59.766 227.237 59.766H225.189C225.135 56.5527 226.353 53.4458 228.583 51.1089C230.77 48.8156 233.785 47.4701 236.97 47.3652H237.343C237.722 47.3652 238.101 47.3652 238.474 47.3932C241.37 47.6234 244.138 48.668 246.454 50.4038C248.903 52.2225 250.899 54.8807 252.437 58.4062C253.976 61.9317 254.7 66.3861 254.7 71.7527H236.958C235.403 71.7956 233.924 72.4311 232.83 73.5266ZM240.182 38.641C239.865 38.3126 239.484 38.0511 239.062 37.8725C238.641 37.6939 238.186 37.6018 237.728 37.6018C237.269 37.6018 236.815 37.6939 236.393 37.8725C235.971 38.0511 235.59 38.3126 235.273 38.641C234.618 39.2986 234.25 40.1852 234.25 41.1088C234.25 42.0325 234.618 42.9191 235.273 43.5767C235.59 43.9051 235.971 44.1665 236.393 44.3452C236.815 44.5238 237.269 44.6159 237.728 44.6159C238.186 44.6159 238.641 44.5238 239.062 44.3452C239.484 44.1665 239.865 43.9051 240.182 43.5767C240.838 42.9191 241.205 42.0325 241.205 41.1088C241.205 40.1852 240.838 39.2986 240.182 38.641Z" fill="white"/>
<path d="M231.721 73.3196C230.633 74.444 230.032 75.9449 230.047 77.5018C230.062 79.0587 230.691 80.5481 231.801 81.6521C232.333 82.2124 232.976 82.6581 233.691 82.9614C234.405 83.2647 235.174 83.419 235.952 83.4148H241.669C242.458 83.4005 243.241 83.5472 243.97 83.8456C244.699 84.1441 245.357 84.588 245.905 85.1496C246.468 85.7079 246.91 86.3729 247.207 87.1047C247.503 87.8365 247.647 88.62 247.63 89.4082H235.952C234.373 89.4328 232.807 89.1274 231.356 88.5122C229.905 87.897 228.602 86.9857 227.531 85.8379C226.398 84.6816 225.51 83.3136 224.917 81.8138C224.325 80.3139 224.041 78.7123 224.081 77.1025C224.165 74.1445 225.356 71.3227 227.423 69.1841C229.434 67.0495 232.189 65.7495 235.132 65.5467C235.437 65.5315 235.743 65.5315 236.048 65.5467H247.127C246.239 60.9636 244.757 57.7123 242.602 55.888C240.448 54.0637 238.344 53.1515 236.217 53.1515C235.094 53.1635 233.995 53.4727 233.033 54.0469C231.957 54.6605 231.1 55.5891 230.579 56.705C229.527 58.5927 228.047 59.5366 226.139 59.5366H224.092C224.038 56.3233 225.256 53.2164 227.485 50.8795C229.67 48.5856 232.683 47.2397 235.867 47.1358H236.246C236.625 47.1358 236.998 47.1358 237.349 47.1358C240.244 47.3651 243.013 48.4098 245.328 50.1464C247.783 51.9652 249.779 54.6233 251.312 58.1488C252.844 61.6743 253.608 66.1287 253.608 71.4953H235.844C234.283 71.5501 232.804 72.2044 231.721 73.3196ZM239.073 38.434C238.757 38.1064 238.376 37.8457 237.955 37.6676C237.533 37.4895 237.08 37.3977 236.622 37.3977C236.164 37.3977 235.71 37.4895 235.289 37.6676C234.867 37.8457 234.487 38.1064 234.17 38.434C233.514 39.0925 233.147 39.98 233.147 40.9046C233.147 41.8292 233.514 42.7167 234.17 43.3753C234.487 43.7028 234.867 43.9635 235.289 44.1416C235.71 44.3197 236.164 44.4115 236.622 44.4115C237.08 44.4115 237.533 44.3197 237.955 44.1416C238.376 43.9635 238.757 43.7028 239.073 43.3753C239.729 42.7167 240.097 41.8292 240.097 40.9046C240.097 39.98 239.729 39.0925 239.073 38.434Z" fill="white" stroke="white" stroke-width="1.12" stroke-miterlimit="10"/>
<path d="M117.25 44.6511L127.311 89.1004H124.33C123.251 89.1139 122.203 88.7425 121.378 88.0539C120.521 87.3906 119.931 86.4459 119.716 85.3902L118.754 81.0141H108.28L107.319 85.3902C107.101 86.4465 106.51 87.3912 105.651 88.0539C104.827 88.7412 103.781 89.1126 102.704 89.1004H99.718L109.785 44.6511H117.25ZM117.346 74.3101L113.529 56.621L109.717 74.3101H117.346Z" fill="white" stroke="white" stroke-width="1.12" stroke-miterlimit="10"/>
<path d="M149.322 71.6019H146.596V64.8475H156.21V89.1007H152.11L151.018 87.4834C149.297 88.5696 147.291 89.132 145.25 89.1007C142.361 89.1007 139.59 87.9652 137.548 85.9439C135.505 83.9226 134.357 81.1812 134.357 78.3227V55.463C134.422 52.6463 135.599 49.9665 137.635 47.9971C139.671 46.0277 142.405 44.925 145.253 44.925C148.1 44.925 150.834 46.0277 152.87 47.9971C154.907 49.9665 156.083 52.6463 156.148 55.463V58.1547H152.014C151.662 58.162 151.313 58.0983 150.987 57.9674C150.661 57.8365 150.366 57.6413 150.119 57.3936C149.86 57.1558 149.655 56.8661 149.517 56.5439C149.38 56.2216 149.313 55.8742 149.322 55.5245C149.32 54.4904 148.931 53.4935 148.23 52.7265C147.856 52.3141 147.395 51.987 146.881 51.7677C146.366 51.5484 145.81 51.4421 145.25 51.4562C144.195 51.4462 143.179 51.8484 142.422 52.5754C142.009 52.9415 141.68 53.3914 141.459 53.8946C141.237 54.3977 141.128 54.9422 141.138 55.4909V78.3507C141.135 79.1645 141.381 79.9602 141.842 80.6338C142.304 81.3073 142.96 81.8271 143.725 82.1253C144.491 82.4235 145.329 82.486 146.131 82.3048C146.933 82.1235 147.66 81.7069 148.219 81.1096C148.93 80.3375 149.32 79.3281 149.31 78.2836L149.322 71.6019Z" fill="white" stroke="white" stroke-width="1.12" stroke-miterlimit="10"/>
<path d="M176.361 51.372H167.996C167.378 51.3727 166.765 51.2526 166.194 51.0185C165.622 50.7844 165.103 50.441 164.666 50.0079C164.228 49.5749 163.882 49.0606 163.646 48.4948C163.41 47.9289 163.29 47.3226 163.291 46.7105V44.6511H183.701V51.3664L170.626 82.374H178.991C179.61 82.3725 180.223 82.4921 180.795 82.7258C181.367 82.9595 181.887 83.3028 182.325 83.736C182.763 84.1691 183.11 84.6836 183.346 85.2498C183.582 85.8161 183.703 86.4229 183.701 87.0355V89.0948H163.291V82.3796L176.361 51.372Z" fill="white" stroke="white" stroke-width="1.12" stroke-miterlimit="10"/>
<path d="M208.302 44.6511L218.363 89.1004H215.383C214.304 89.1139 213.256 88.7425 212.431 88.0539C211.575 87.389 210.986 86.445 210.768 85.3902L209.807 81.0141H199.333L198.371 85.3902C198.154 86.4465 197.562 87.3912 196.703 88.0539C195.88 88.7412 194.834 89.1126 193.757 89.1004H190.771L200.837 44.6511H208.302ZM208.399 74.3101L204.581 56.621L200.769 74.3101H208.399Z" fill="white" stroke="white" stroke-width="1.12" stroke-miterlimit="10"/>
<path d="M278.029 74.0301V51.0864C278.015 50.3182 278.162 49.5556 278.46 48.8461C278.758 48.1365 279.2 47.4952 279.759 46.9621C280.304 46.4089 280.957 45.9716 281.679 45.6772C282.4 45.3827 283.175 45.2373 283.956 45.2498H284.855V89.755H280.817C278.832 89.755 277.356 88.7085 276.36 86.6436L267.119 61.0977V85.0655C267.123 85.6786 267.004 86.2864 266.77 86.8541C266.536 87.4218 266.192 87.9382 265.755 88.3738C265.319 88.8094 264.801 89.1557 264.229 89.3927C263.658 89.6297 263.045 89.7528 262.425 89.755H260.333V45.2722H263.375C265.841 45.2722 267.702 46.5424 268.918 49.111L278.029 74.0301Z" fill="white" stroke="white" stroke-width="1.12" stroke-miterlimit="10"/>
<path d="M312.363 45.2725V51.9877H305.576V85.0546C305.578 85.6672 305.457 86.274 305.221 86.8402C304.984 87.4065 304.638 87.9209 304.2 88.3541C303.762 88.7873 303.242 89.1306 302.67 89.3643C302.098 89.598 301.484 89.7176 300.865 89.7161H298.75V51.9989H291.964V45.2836L312.363 45.2725Z" fill="white" stroke="white" stroke-width="1.12" stroke-miterlimit="10"/>
<path d="M329.385 70.3203L319.42 45.2725H323.424C325.443 45.2725 326.92 46.3189 327.881 48.3839L332.812 62.3012L337.716 48.4118C338.677 46.3189 340.153 45.2725 342.172 45.2725H346.176L336.211 70.3203V85.0658C336.222 85.6795 336.105 86.2887 335.868 86.8557C335.63 87.4228 335.278 87.9354 334.831 88.3619C334.392 88.8088 333.863 89.1608 333.279 89.3957C332.695 89.6307 332.068 89.7436 331.438 89.7273H329.385V70.3203Z" fill="white" stroke="white" stroke-width="1.12" stroke-miterlimit="10"/>
</svg>
