<svg width="291" height="96" viewBox="0 0 291 96" fill="none" xmlns="http://www.w3.org/2000/svg">
<path d="M44.9888 63.9547C14.4522 50.0914 16.4404 50.7057 15.2823 51.1415C14.1243 51.5774 14.7801 50.7638 5.67762 70.8282C-2.37885 88.5641 20.3461 104.167 34.031 90.4734C37.007 87.4932 37.0194 86.5801 46.0306 66.7232C46.1462 66.4734 46.2109 66.203 46.221 65.9279C46.2312 65.6528 46.1864 65.3784 46.0895 65.1208C45.9925 64.8631 45.8453 64.6273 45.6563 64.4271C45.4673 64.2269 45.2404 64.0663 44.9888 63.9547ZM17.7727 61.0492C12.9206 70.8905 5.84781 80.3458 12.684 87.9872C10.5869 86.0875 9.14794 83.5704 8.57495 80.7994C8.00195 78.0285 8.32459 75.1471 9.49626 72.5715C18.7896 52.0962 12.9994 54.0387 41.3694 66.9141C40.5973 68.5661 20.7031 55.093 17.7727 61.0326V61.0492Z" fill="#41BCE8"/>
<path d="M15.7514 48.2734C47.8569 32.1148 46.0057 33.36 46.425 32.0857C46.8442 30.8114 47.0766 31.9238 36.4633 10.83C27.0828 -7.82314 -1.22491 0.648411 0.995706 21.2773C1.48134 25.7642 2.24092 26.391 12.7422 47.2648C12.8732 47.5288 13.0551 47.7645 13.2774 47.9581C13.4997 48.1518 13.758 48.2997 14.0375 48.3934C14.317 48.4871 14.6123 48.5247 14.9064 48.5041C15.2005 48.4835 15.4877 48.4051 15.7514 48.2734ZM36.5048 27.5199C31.5572 16.8568 28.4234 4.59571 17.449 5.15606C20.4447 4.68007 23.5141 5.16959 26.2131 6.55378C28.9121 7.93797 31.1006 10.145 32.462 12.8556C43.287 34.3852 45.5658 28.2463 15.7223 43.2593C14.8548 41.5036 39.485 33.9701 36.4965 27.5241L36.5048 27.5199Z" fill="url(#paint0_linear_229_483)"/>
<path d="M35.2681 50.2407C35.2681 50.2407 39.6346 44.712 45.4248 47.1401C51.215 49.5683 53.2654 48.8212 53.5269 48.7091C53.7884 48.597 45.0139 62.5599 35.5296 51.5066C35.5296 51.5066 37.3891 50.0664 44.0426 51.1455C44.0426 51.1455 47.8488 51.5066 49.1936 50.8716C49.1936 50.8716 49.4095 50.6765 48.9695 50.6599C47.6146 50.5839 46.2674 50.4063 44.9392 50.1286C43.9472 49.8298 37.9743 49.174 35.2681 50.2407Z" fill="url(#paint1_linear_229_483)" stroke="#006838" stroke-width="0.13" stroke-miterlimit="10"/>
<path d="M47.2219 43.6413C47.2219 43.6413 48.6954 38.3783 53.5642 38.3866C58.4329 38.3949 59.6823 37.241 59.8358 37.0833C59.9894 36.9255 57.885 49.5353 47.7989 44.4715C47.7989 44.4715 48.6996 42.8818 53.7883 41.6656C53.7883 41.6656 56.6232 40.7857 57.3952 39.9306C57.3952 39.9306 57.4907 39.7231 57.1711 39.8435C56.1778 40.1961 55.1594 40.4736 54.1245 40.6736C53.2985 40.7566 48.8407 42.0724 47.2219 43.6413Z" fill="url(#paint2_linear_229_483)" stroke="#006838" stroke-width="0.1" stroke-miterlimit="10"/>
<path d="M48.0147 56.965C48.0147 56.965 53.6845 53.3498 58.1423 57.351C62.6002 61.3523 64.688 61.3191 64.9578 61.3025C65.2275 61.2859 52.9415 71.1272 47.8528 58.1895C47.8528 58.1895 49.9779 57.4714 55.6395 60.5305C55.6395 60.5305 58.96 62.0496 60.3713 61.896C60.3713 61.896 60.6286 61.7881 60.2384 61.6346C59.039 61.1428 57.879 60.56 56.7685 59.8913C55.9508 59.2894 50.7873 56.853 48.0147 56.965Z" fill="url(#paint3_linear_229_483)" stroke="#006838" stroke-width="0.12" stroke-miterlimit="10"/>
<path d="M31.3082 53.1797C32.1999 53.1797 32.9228 52.4568 32.9228 51.5651C32.9228 50.6733 32.1999 49.9504 31.3082 49.9504C30.4165 49.9504 29.6936 50.6733 29.6936 51.5651C29.6936 52.4568 30.4165 53.1797 31.3082 53.1797Z" fill="url(#paint4_linear_229_483)" stroke="#006838" stroke-width="0.2" stroke-miterlimit="10"/>
<path d="M43.5943 41.8854C44.3554 41.8854 44.9724 41.2685 44.9724 40.5074C44.9724 39.7464 44.3554 39.1294 43.5943 39.1294C42.8333 39.1294 42.2163 39.7464 42.2163 40.5074C42.2163 41.2685 42.8333 41.8854 43.5943 41.8854Z" fill="url(#paint5_linear_229_483)" stroke="#006838" stroke-width="0.17" stroke-miterlimit="10"/>
<path d="M45.0636 62.3775C46.1869 62.3775 47.0975 61.4669 47.0975 60.3436C47.0975 59.2204 46.1869 58.3098 45.0636 58.3098C43.9404 58.3098 43.0298 59.2204 43.0298 60.3436C43.0298 61.4669 43.9404 62.3775 45.0636 62.3775Z" fill="url(#paint6_linear_229_483)" stroke="#006838" stroke-width="0.25" stroke-miterlimit="10"/>
<path d="M61.5128 49.4688C62.5581 49.4688 63.4055 48.6214 63.4055 47.5761C63.4055 46.5307 62.5581 45.6833 61.5128 45.6833C60.4675 45.6833 59.6201 46.5307 59.6201 47.5761C59.6201 48.6214 60.4675 49.4688 61.5128 49.4688Z" fill="url(#paint7_linear_229_483)" stroke="#006838" stroke-width="0.23" stroke-miterlimit="10"/>
<path d="M63.0236 56.6952C64.3463 56.6952 65.4186 55.6229 65.4186 54.3002C65.4186 52.9775 64.3463 51.9053 63.0236 51.9053C61.7009 51.9053 60.6287 52.9775 60.6287 54.3002C60.6287 55.6229 61.7009 56.6952 63.0236 56.6952Z" fill="url(#paint8_linear_229_483)" stroke="#006838" stroke-width="0.3" stroke-miterlimit="10"/>
<path d="M194.966 62.4378C194.062 63.3868 193.563 64.6506 193.576 65.9611C193.588 67.2717 194.11 68.5259 195.032 69.4577C195.476 69.9304 196.013 70.3062 196.61 70.5617C197.206 70.8173 197.849 70.947 198.497 70.9428H203.278C203.935 70.9297 204.587 71.0528 205.194 71.3043C205.801 71.5559 206.349 71.9304 206.804 72.4043C207.273 72.8747 207.642 73.4349 207.889 74.0515C208.136 74.668 208.256 75.328 208.242 75.9921H198.497C197.186 76.0141 195.885 75.7602 194.678 75.2469C193.471 74.7336 192.385 73.9723 191.491 73.0125C190.547 72.0383 189.807 70.8858 189.313 69.6222C188.819 68.3586 188.582 67.0093 188.616 65.6531C188.688 63.1615 189.68 60.7849 191.402 58.982C193.078 57.1828 195.375 56.0875 197.828 55.9176C198.083 55.8969 198.34 55.889 198.596 55.894H207.832C207.087 52.0328 205.852 49.2936 204.06 47.7567C202.269 46.2198 200.51 45.4513 198.733 45.4513C197.797 45.4614 196.88 45.7219 196.079 46.2056C195.184 46.7243 194.471 47.5063 194.037 48.445C193.137 50.0433 191.902 50.8447 190.303 50.8447H188.597C188.551 48.1376 189.567 45.5201 191.425 43.5514C193.249 41.6193 195.762 40.4857 198.417 40.3973H198.728C199.044 40.3973 199.36 40.3973 199.671 40.4209C202.085 40.6149 204.393 41.495 206.323 42.9573C208.365 44.4895 210.029 46.729 211.311 49.6991C212.594 52.6693 213.197 56.422 213.197 60.9433H198.408C197.111 60.9794 195.878 61.5148 194.966 62.4378ZM201.095 33.0474C200.831 32.7707 200.513 32.5504 200.162 32.3999C199.81 32.2495 199.431 32.1719 199.049 32.1719C198.666 32.1719 198.288 32.2495 197.936 32.3999C197.584 32.5504 197.267 32.7707 197.003 33.0474C196.456 33.6014 196.15 34.3483 196.15 35.1265C196.15 35.9047 196.456 36.6516 197.003 37.2056C197.267 37.4823 197.584 37.7025 197.936 37.853C198.288 38.0035 198.666 38.0811 199.049 38.0811C199.431 38.0811 199.81 38.0035 200.162 37.853C200.513 37.7025 200.831 37.4823 201.095 37.2056C201.641 36.6516 201.948 35.9047 201.948 35.1265C201.948 34.3483 201.641 33.6014 201.095 33.0474Z" fill="#4AB8C3"/>
<path d="M194.042 62.2635C193.135 63.2108 192.634 64.4752 192.646 65.7869C192.658 67.0985 193.183 68.3533 194.108 69.2834C194.552 69.7554 195.088 70.1309 195.683 70.3864C196.279 70.6419 196.92 70.772 197.568 70.7685H202.335C202.992 70.7564 203.645 70.88 204.253 71.1314C204.86 71.3829 205.409 71.7568 205.866 72.23C206.335 72.7003 206.704 73.2606 206.951 73.8771C207.198 74.4936 207.318 75.1537 207.304 75.8177H197.568C196.253 75.8384 194.947 75.5812 193.737 75.0629C192.528 74.5446 191.441 73.7769 190.548 72.8099C189.604 71.8357 188.864 70.6832 188.37 69.4196C187.876 68.156 187.639 66.8067 187.673 65.4505C187.743 62.9584 188.736 60.5811 190.459 58.7794C192.135 56.981 194.432 55.8858 196.885 55.715C197.139 55.7021 197.394 55.7021 197.649 55.715H206.884C206.144 51.8537 204.909 49.1146 203.113 47.5777C201.316 46.0407 199.563 45.2723 197.79 45.2723C196.854 45.2824 195.937 45.5428 195.136 46.0266C194.238 46.5435 193.524 47.3259 193.09 48.266C192.213 49.8564 190.979 50.6515 189.389 50.6515H187.682C187.637 47.9444 188.652 45.3269 190.511 43.3582C192.332 41.4255 194.844 40.2917 197.498 40.2041H197.814C198.129 40.2041 198.441 40.2041 198.733 40.2041C201.147 40.3974 203.455 41.2775 205.385 42.7406C207.431 44.2728 209.095 46.5122 210.373 49.4823C211.651 52.4525 212.287 56.2053 212.287 60.7265H197.479C196.177 60.7727 194.944 61.3239 194.042 62.2635ZM200.171 32.873C199.907 32.5971 199.589 32.3774 199.238 32.2274C198.887 32.0774 198.509 32 198.127 32C197.745 32 197.367 32.0774 197.016 32.2274C196.665 32.3774 196.347 32.5971 196.083 32.873C195.537 33.4279 195.23 34.1755 195.23 34.9545C195.23 35.7334 195.537 36.4811 196.083 37.036C196.347 37.3119 196.665 37.5315 197.016 37.6816C197.367 37.8316 197.745 37.909 198.127 37.909C198.509 37.909 198.887 37.8316 199.238 37.6816C199.589 37.5315 199.907 37.3119 200.171 37.036C200.718 36.4811 201.024 35.7334 201.024 34.9545C201.024 34.1755 200.718 33.4279 200.171 32.873Z" fill="#41BCE8" stroke="white" stroke-width="1.12" stroke-miterlimit="10"/>
<path d="M98.6151 38.1108L107.002 75.5584H104.518C103.618 75.5698 102.744 75.2569 102.057 74.6768C101.342 74.118 100.85 73.3221 100.671 72.4327L99.8691 68.7459H91.1378L90.3363 72.4327C90.1551 73.3226 89.6618 74.1185 88.9456 74.6768C88.2591 75.2558 87.3873 75.5687 86.4893 75.5584H84L92.3919 38.1108H98.6151ZM98.6952 63.0979L95.5129 48.1952L92.3353 63.0979H98.6952Z" fill="#A7A9AC" stroke="white" stroke-width="1.12" stroke-miterlimit="10"/>
<path d="M125.351 60.8162H123.079V55.1258H131.093V75.5586H127.675L126.765 74.1961C125.33 75.1112 123.658 75.5849 121.957 75.5586C119.548 75.5586 117.239 74.6019 115.536 72.8991C113.833 71.1962 112.876 68.8866 112.876 66.4784V47.2195C112.931 44.8465 113.911 42.5889 115.609 40.9297C117.306 39.2705 119.585 38.3416 121.959 38.3416C124.333 38.3416 126.612 39.2705 128.309 40.9297C130.007 42.5889 130.988 44.8465 131.042 47.2195V49.4872H127.595C127.302 49.4934 127.011 49.4397 126.739 49.3295C126.468 49.2192 126.222 49.0547 126.016 48.846C125.8 48.6457 125.629 48.4016 125.514 48.1302C125.4 47.8587 125.344 47.566 125.351 47.2714C125.35 46.4001 125.026 45.5603 124.441 44.9141C124.129 44.5667 123.745 44.2911 123.316 44.1063C122.887 43.9216 122.424 43.832 121.957 43.8439C121.077 43.8355 120.23 44.1743 119.599 44.7868C119.255 45.0952 118.981 45.4743 118.796 45.8982C118.612 46.3221 118.52 46.7808 118.529 47.2431V66.502C118.527 67.1876 118.731 67.858 119.116 68.4254C119.501 68.9928 120.048 69.4308 120.686 69.682C121.324 69.9332 122.023 69.9859 122.691 69.8332C123.36 69.6805 123.966 69.3295 124.432 68.8262C125.025 68.1758 125.35 67.3254 125.342 66.4454L125.351 60.8162Z" fill="#A7A9AC" stroke="white" stroke-width="1.12" stroke-miterlimit="10"/>
<path d="M147.892 43.773H140.919C140.403 43.7736 139.892 43.6724 139.416 43.4752C138.939 43.278 138.507 42.9887 138.142 42.6239C137.778 42.259 137.489 41.8258 137.292 41.349C137.096 40.8723 136.995 40.3615 136.996 39.8458V38.1108H154.011V43.7683L143.111 69.8915H150.084C150.6 69.8903 151.111 69.991 151.588 70.188C152.065 70.3849 152.499 70.6741 152.864 71.039C153.229 71.4039 153.518 71.8374 153.715 72.3144C153.912 72.7914 154.012 73.3027 154.011 73.8188V75.5537H136.996V69.8963L147.892 43.773Z" fill="#A7A9AC" stroke="white" stroke-width="1.12" stroke-miterlimit="10"/>
<path d="M174.519 38.1108L182.906 75.5584H180.422C179.522 75.5698 178.648 75.2569 177.961 74.6768C177.247 74.1166 176.756 73.3213 176.575 72.4327L175.773 68.7459H167.042L166.24 72.4327C166.059 73.3226 165.566 74.1185 164.85 74.6768C164.163 75.2558 163.291 75.5687 162.393 75.5584H159.904L168.296 38.1108H174.519ZM174.599 63.0979L171.417 48.1952L168.239 63.0979H174.599Z" fill="#A7A9AC" stroke="white" stroke-width="1.12" stroke-miterlimit="10"/>
<path d="M232.645 62.862V43.5324C232.634 42.8852 232.756 42.2427 233.005 41.6449C233.253 41.0472 233.621 40.5069 234.087 40.0578C234.542 39.5917 235.086 39.2233 235.688 38.9752C236.289 38.7271 236.935 38.6046 237.586 38.6151H238.335V76.1098H234.969C233.314 76.1098 232.084 75.2282 231.254 73.4886L223.551 51.9667V72.1591C223.554 72.6756 223.455 73.1876 223.26 73.6659C223.065 74.1442 222.777 74.5793 222.414 74.9463C222.05 75.3132 221.618 75.6049 221.141 75.8046C220.665 76.0043 220.154 76.108 219.637 76.1098H217.893V38.634H220.429C222.485 38.634 224.036 39.7042 225.05 41.8682L232.645 62.862Z" fill="#A7A9AC" stroke="white" stroke-width="1.12" stroke-miterlimit="10"/>
<path d="M261.267 38.6343V44.2917H255.609V72.1499C255.611 72.666 255.51 73.1772 255.313 73.6543C255.116 74.1313 254.827 74.5647 254.462 74.9297C254.097 75.2946 253.664 75.5838 253.187 75.7807C252.709 75.9776 252.198 76.0784 251.682 76.0771H249.919V44.3011H244.261V38.6437L261.267 38.6343Z" fill="#A7A9AC" stroke="white" stroke-width="1.12" stroke-miterlimit="10"/>
<path d="M275.457 59.7365L267.15 38.6343H270.488C272.171 38.6343 273.402 39.5159 274.203 41.2556L278.314 52.9806L282.402 41.2791C283.203 39.5159 284.434 38.6343 286.117 38.6343H289.455L281.148 59.7365V72.1593C281.157 72.6763 281.059 73.1896 280.861 73.6673C280.663 74.145 280.369 74.5769 279.998 74.9362C279.631 75.3127 279.19 75.6093 278.703 75.8072C278.217 76.0052 277.694 76.1003 277.169 76.0866H275.457V59.7365Z" fill="#A7A9AC" stroke="white" stroke-width="1.12" stroke-miterlimit="10"/>
<defs>
<linearGradient id="paint0_linear_229_483" x1="36.6536" y1="8.62001" x2="4.40807" y2="36.1984" gradientUnits="userSpaceOnUse">
<stop stop-color="#4AB8C3"/>
<stop offset="1" stop-color="#98C73C"/>
</linearGradient>
<linearGradient id="paint1_linear_229_483" x1="35.2681" y1="51.1455" x2="53.5311" y2="51.1455" gradientUnits="userSpaceOnUse">
<stop stop-color="#4DBABB"/>
<stop offset="1" stop-color="#96C740"/>
</linearGradient>
<linearGradient id="paint2_linear_229_483" x1="47.3313" y1="43.0992" x2="60.3681" y2="37.5727" gradientUnits="userSpaceOnUse">
<stop stop-color="#5FBDA7"/>
<stop offset="1" stop-color="#8CC456"/>
</linearGradient>
<linearGradient id="paint3_linear_229_483" x1="47.7315" y1="57.7754" x2="64.2036" y2="63.4955" gradientUnits="userSpaceOnUse">
<stop stop-color="#5EBDAA"/>
<stop offset="1" stop-color="#8FC64F"/>
</linearGradient>
<linearGradient id="paint4_linear_229_483" x1="29.7808" y1="51.0338" x2="32.8357" y2="52.0922" gradientUnits="userSpaceOnUse">
<stop stop-color="#5BBCB0"/>
<stop offset="1" stop-color="#90C44E"/>
</linearGradient>
<linearGradient id="paint5_linear_229_483" x1="42.291" y1="40.055" x2="44.8977" y2="40.9598" gradientUnits="userSpaceOnUse">
<stop stop-color="#5BBCB0"/>
<stop offset="1" stop-color="#90C44E"/>
</linearGradient>
<linearGradient id="paint6_linear_229_483" x1="43.1419" y1="59.6754" x2="46.9854" y2="61.0119" gradientUnits="userSpaceOnUse">
<stop stop-color="#5BBCB0"/>
<stop offset="1" stop-color="#90C44E"/>
</linearGradient>
<linearGradient id="paint7_linear_229_483" x1="59.7239" y1="46.9576" x2="63.3018" y2="48.1987" gradientUnits="userSpaceOnUse">
<stop stop-color="#5BBCB0"/>
<stop offset="1" stop-color="#90C44E"/>
</linearGradient>
<linearGradient id="paint8_linear_229_483" x1="60.7615" y1="53.5116" x2="65.2857" y2="55.0847" gradientUnits="userSpaceOnUse">
<stop stop-color="#5BBCB0"/>
<stop offset="1" stop-color="#90C44E"/>
</linearGradient>
</defs>
</svg>
