<svg width="37" height="33" viewBox="0 0 37 33" fill="none" xmlns="http://www.w3.org/2000/svg">
<path d="M30.9756 22.9444V24.4444H32.147L32.4309 23.308L30.9756 22.9444ZM10.0488 22.9444L8.5935 23.308L8.87738 24.4444H10.0488V22.9444ZM6.02439 6.83333L4.5691 7.19685L6.02439 6.83333ZM35 6.83333L36.4553 7.19685L36.9208 5.33333H35V6.83333ZM2 0.5C1.17157 0.5 0.5 1.17157 0.5 2C0.5 2.82843 1.17157 3.5 2 3.5V0.5ZM4.81707 2L6.27236 1.63648C6.10553 0.968594 5.50549 0.5 4.81707 0.5V2ZM30.9756 21.4444H10.0488V24.4444H30.9756V21.4444ZM11.5041 22.5809L7.47968 6.46982L4.5691 7.19685L8.5935 23.308L11.5041 22.5809ZM6.02439 8.33333H35V5.33333H6.02439V8.33333ZM33.5447 6.46982L29.5203 22.5809L32.4309 23.308L36.4553 7.19685L33.5447 6.46982ZM2 3.5H4.81707V0.5H2V3.5ZM3.36179 2.36352L4.5691 7.19685L7.47968 6.46982L6.27236 1.63648L3.36179 2.36352ZM10.9634 28.5833C10.9634 29.0908 10.5527 29.5 10.0488 29.5V32.5C12.212 32.5 13.9634 30.7453 13.9634 28.5833H10.9634ZM10.0488 29.5C9.54483 29.5 9.13415 29.0908 9.13415 28.5833H6.13415C6.13415 30.7453 7.8856 32.5 10.0488 32.5V29.5ZM9.13415 28.5833C9.13415 28.0759 9.54483 27.6667 10.0488 27.6667V24.6667C7.8856 24.6667 6.13415 26.4214 6.13415 28.5833H9.13415ZM10.0488 27.6667C10.5527 27.6667 10.9634 28.0759 10.9634 28.5833H13.9634C13.9634 26.4214 12.212 24.6667 10.0488 24.6667V27.6667ZM31.8902 28.5833C31.8902 29.0908 31.4796 29.5 30.9756 29.5V32.5C33.1388 32.5 34.8902 30.7453 34.8902 28.5833H31.8902ZM30.9756 29.5C30.4717 29.5 30.061 29.0908 30.061 28.5833H27.061C27.061 30.7453 28.8124 32.5 30.9756 32.5V29.5ZM30.061 28.5833C30.061 28.0759 30.4717 27.6667 30.9756 27.6667V24.6667C28.8124 24.6667 27.061 26.4214 27.061 28.5833H30.061ZM30.9756 27.6667C31.4796 27.6667 31.8902 28.0759 31.8902 28.5833H34.8902C34.8902 26.4214 33.1388 24.6667 30.9756 24.6667V27.6667Z" fill="white"/>
</svg>
