<svg width="36" height="28" viewBox="0 0 36 28" fill="none" xmlns="http://www.w3.org/2000/svg">
<path d="M2.25 2.75C2.25 2.15326 2.48705 1.58097 2.90901 1.15901C3.33097 0.737053 3.90326 0.5 4.5 0.5H31.5C32.0967 0.5 32.669 0.737053 33.091 1.15901C33.5129 1.58097 33.75 2.15326 33.75 2.75H2.25ZM18 20.75C19.1935 20.75 20.3381 20.2759 21.182 19.432C22.0259 18.5881 22.5 17.4435 22.5 16.25C22.5 15.0565 22.0259 13.9119 21.182 13.068C20.3381 12.2241 19.1935 11.75 18 11.75C16.8065 11.75 15.6619 12.2241 14.818 13.068C13.9741 13.9119 13.5 15.0565 13.5 16.25C13.5 17.4435 13.9741 18.5881 14.818 19.432C15.6619 20.2759 16.8065 20.75 18 20.75Z" fill="black"/>
<path d="M0 7.25C0 6.65326 0.237053 6.08097 0.65901 5.65901C1.08097 5.23705 1.65326 5 2.25 5H33.75C34.3467 5 34.919 5.23705 35.341 5.65901C35.7629 6.08097 36 6.65326 36 7.25V25.25C36 25.8467 35.7629 26.419 35.341 26.841C34.919 27.2629 34.3467 27.5 33.75 27.5H2.25C1.65326 27.5 1.08097 27.2629 0.65901 26.841C0.237053 26.419 0 25.8467 0 25.25V7.25ZM6.75 7.25C6.75 8.44347 6.27589 9.58807 5.43198 10.432C4.58807 11.2759 3.44347 11.75 2.25 11.75V20.75C3.44347 20.75 4.58807 21.2241 5.43198 22.068C6.27589 22.9119 6.75 24.0565 6.75 25.25H29.25C29.25 24.0565 29.7241 22.9119 30.568 22.068C31.4119 21.2241 32.5565 20.75 33.75 20.75V11.75C32.5565 11.75 31.4119 11.2759 30.568 10.432C29.7241 9.58807 29.25 8.44347 29.25 7.25H6.75Z" fill="black"/>
</svg>
