<svg width="22" height="23" viewBox="0 0 22 23" fill="none" xmlns="http://www.w3.org/2000/svg">
<g clip-path="url(#clip0_71_1034)">
<path d="M4.93757 13.9736L4.17939 16.804L1.40826 16.8626C0.580098 15.3266 0.110352 13.5691 0.110352 11.7015C0.110352 9.89558 0.549553 8.19255 1.32807 6.69299H1.32866L3.79575 7.1453L4.87648 9.59758C4.65029 10.257 4.527 10.9649 4.527 11.7015C4.52709 12.501 4.6719 13.2669 4.93757 13.9736Z" fill="#FBBB00"/>
<path d="M21.7017 9.66711C21.8268 10.3259 21.892 11.0063 21.892 11.7016C21.892 12.4813 21.81 13.2419 21.6539 13.9755C21.1237 16.472 19.7384 18.6519 17.8194 20.1946L17.8188 20.194L14.7114 20.0355L14.2716 17.29C15.5449 16.5432 16.5401 15.3746 17.0643 13.9755H11.2407V9.66711H17.1492H21.7017Z" fill="#518EF8"/>
<path d="M17.8185 20.194L17.8191 20.1946C15.9527 21.6948 13.5818 22.5923 11.001 22.5923C6.85356 22.5923 3.24767 20.2742 1.4082 16.8628L4.93752 13.9738C5.85723 16.4283 8.22506 18.1757 11.001 18.1757C12.1942 18.1757 13.312 17.8531 14.2712 17.29L17.8185 20.194Z" fill="#28B446"/>
<path d="M17.9526 3.31816L14.4245 6.20658C13.4318 5.58606 12.2583 5.22761 11.0011 5.22761C8.16234 5.22761 5.75022 7.05508 4.87658 9.59767L1.32872 6.69309H1.32812C3.14066 3.19849 6.79203 0.810913 11.0011 0.810913C13.6436 0.810913 16.0665 1.75219 17.9526 3.31816Z" fill="#F14336"/>
</g>
<defs>
<clipPath id="clip0_71_1034">
<rect width="21.7814" height="21.7814" fill="white" transform="translate(0.110352 0.810913)"/>
</clipPath>
</defs>
</svg>
