<svg width="22" height="21" viewBox="0 0 22 21" fill="none" xmlns="http://www.w3.org/2000/svg">
<path d="M3.92893 15.3787C2.11929 15.9216 1 16.6716 1 17.5C1 19.1568 5.47715 20.5 11 20.5C16.5229 20.5 21 19.1568 21 17.5C21 16.6716 19.8807 15.9216 18.0711 15.3787M11 16.5C11 16.5 17.5 12.252 17.5 7.3409C17.5 3.83892 14.5898 1 11 1C7.41015 1 4.5 3.83892 4.5 7.3409C4.5 12.252 11 16.5 11 16.5ZM11 10C12.3807 10 13.5 8.8807 13.5 7.5C13.5 6.1193 12.3807 5 11 5C9.6193 5 8.5 6.1193 8.5 7.5C8.5 8.8807 9.6193 10 11 10Z" stroke="#20A5D5" stroke-linecap="round" stroke-linejoin="round"/>
</svg>
