<svg width="19" height="20" viewBox="0 0 19 20" fill="none" xmlns="http://www.w3.org/2000/svg">
<path fill-rule="evenodd" clip-rule="evenodd" d="M2.96184 2.84277C2.29515 2.84277 1.92169 3.42605 2.09749 3.94705C2.9387 6.4401 4.49479 10.1503 6.79389 12.4493C9.09293 14.7484 12.8032 16.3045 15.2962 17.1457C15.8172 17.3215 16.4005 16.9481 16.4005 16.2814V13.7447L14.1908 12.5162L11.8343 13.6944C11.6379 13.7926 11.4145 13.8234 11.1988 13.7821L11.3871 12.8C11.1988 13.7821 11.1991 13.7821 11.1988 13.7821L11.196 13.7815L11.1926 13.7809L11.1838 13.7791L11.1586 13.7739C11.1385 13.7696 11.1119 13.7637 11.0792 13.7559C11.0138 13.7405 10.924 13.7177 10.8141 13.686C10.5946 13.6226 10.2923 13.5229 9.94153 13.3735C9.24396 13.0762 8.33022 12.5715 7.50098 11.7423C6.67187 10.9132 6.16585 9.99823 5.86729 9.29986C5.71715 8.94866 5.61672 8.64584 5.55284 8.4261C5.52083 8.31601 5.49781 8.22614 5.48219 8.16073C5.47438 8.12801 5.4684 8.10134 5.46407 8.08126L5.45877 8.05611L5.457 8.04735L5.45632 8.04394L5.45603 8.04248C5.45597 8.04217 5.45578 8.04119 6.43739 7.85026L5.45578 8.04119C5.41367 7.82468 5.44432 7.60033 5.54295 7.40305L6.72135 5.0462L5.49821 2.84282L2.96184 2.84277ZM7.50092 7.95926C7.54661 8.10567 7.61322 8.29599 7.70628 8.51366C7.93577 9.05044 8.3151 9.72796 8.91519 10.3281C9.51515 10.928 10.1909 11.3057 10.7256 11.5336C10.9422 11.6258 11.1314 11.6918 11.2771 11.737L13.2963 10.7274C13.2963 10.7274 13.2963 10.7273 13.2963 10.7274C13.887 10.432 14.5855 10.4473 15.1626 10.7682L17.3723 11.9967C18.0067 12.3495 18.4005 13.0184 18.4005 13.7447V16.2814C18.4005 18.1984 16.5839 19.6911 14.6568 19.0408C12.1219 18.1855 8.02743 16.5114 5.37969 13.8636C5.37968 13.8636 5.37969 13.8636 5.37969 13.8636M5.37969 13.8636C2.73188 11.2158 1.05778 7.12132 0.202457 4.58647C-0.44777 2.65938 1.04486 0.842773 2.96184 0.842773H5.49814C6.22472 0.842773 6.89409 1.23679 7.24677 1.87198L8.47 4.07544C8.79026 4.65237 8.80541 5.35027 8.51022 5.94061C8.5102 5.94064 8.51023 5.94059 8.51022 5.94061L7.50092 7.95926" fill="#C6C6C6"/>
</svg>
