<svg width="32" height="31" viewBox="0 0 32 31" fill="none" xmlns="http://www.w3.org/2000/svg">
<path d="M18.375 11.4375C18.375 11.1226 18.2499 10.8205 18.0272 10.5978C17.8045 10.3751 17.5024 10.25 17.1875 10.25H7.6875C7.37256 10.25 7.07051 10.3751 6.84781 10.5978C6.62511 10.8205 6.5 11.1226 6.5 11.4375C6.5 11.7524 6.62511 12.0545 6.84781 12.2772C7.07051 12.4999 7.37256 12.625 7.6875 12.625H17.1875C17.5024 12.625 17.8045 12.4999 18.0272 12.2772C18.2499 12.0545 18.375 11.7524 18.375 11.4375ZM16.7917 16.1875C16.7917 15.8726 16.6666 15.5705 16.4439 15.3478C16.2212 15.1251 15.9191 15 15.6042 15H7.6875C7.37256 15 7.07051 15.1251 6.84781 15.3478C6.62511 15.5705 6.5 15.8726 6.5 16.1875C6.5 16.5024 6.62511 16.8045 6.84781 17.0272C7.07051 17.2499 7.37256 17.375 7.6875 17.375H15.6042C15.9191 17.375 16.2212 17.2499 16.4439 17.0272C16.6666 16.8045 16.7917 16.5024 16.7917 16.1875ZM17.1875 19.75C17.5024 19.75 17.8045 19.8751 18.0272 20.0978C18.2499 20.3205 18.375 20.6226 18.375 20.9375C18.375 21.2524 18.2499 21.5545 18.0272 21.7772C17.8045 21.9999 17.5024 22.125 17.1875 22.125H7.6875C7.37256 22.125 7.07051 21.9999 6.84781 21.7772C6.62511 21.5545 6.5 21.2524 6.5 20.9375C6.5 20.6226 6.62511 20.3205 6.84781 20.0978C7.07051 19.8751 7.37256 19.75 7.6875 19.75H17.1875Z" fill="black"/>
<path fill-rule="evenodd" clip-rule="evenodd" d="M6.5 30.4373H27.0833C28.2381 30.4373 29.3456 29.9786 30.1622 29.162C30.9788 28.3454 31.4375 27.2379 31.4375 26.0831V17.3748C31.4375 17.0599 31.3124 16.7578 31.0897 16.5351C30.867 16.3124 30.5649 16.1873 30.25 16.1873H25.1042V3.82622C25.1042 1.57314 22.5566 0.262136 20.7231 1.57155L20.446 1.76947C19.8392 2.20018 19.1133 2.43103 18.3692 2.42989C17.6252 2.42876 16.8999 2.19569 16.2945 1.76314C15.2837 1.04378 14.0739 0.657227 12.8333 0.657227C11.5927 0.657227 10.3829 1.04378 9.37217 1.76314C8.76673 2.19569 8.04151 2.42876 7.29743 2.42989C6.55335 2.43103 5.82742 2.20018 5.22067 1.76947L4.94358 1.57155C3.11008 0.262136 0.5625 1.57155 0.5625 3.82622V24.4998C0.5625 26.0745 1.18806 27.5848 2.30155 28.6983C3.41505 29.8118 4.92528 30.4373 6.5 30.4373ZM10.7528 3.6948C11.3608 3.26326 12.0878 3.03143 12.8333 3.03143C13.5788 3.03143 14.3059 3.26326 14.9138 3.6948C15.9219 4.41541 17.1298 4.80347 18.369 4.80489C19.6082 4.80631 20.8169 4.42101 21.8267 3.70272L22.1038 3.5048C22.1629 3.4627 22.2325 3.43767 22.3049 3.43245C22.3773 3.42722 22.4497 3.44201 22.5143 3.47519C22.5788 3.50837 22.633 3.55867 22.6709 3.62058C22.7088 3.68249 22.729 3.75363 22.7292 3.82622V26.0831C22.7292 26.7956 22.9002 27.4686 23.2042 28.0623H6.5C5.55517 28.0623 4.64903 27.687 3.98093 27.0189C3.31283 26.3508 2.9375 25.4446 2.9375 24.4998V3.82622C2.93769 3.75363 2.95784 3.68249 2.99574 3.62058C3.03364 3.55867 3.08784 3.50837 3.1524 3.47519C3.21696 3.44201 3.28941 3.42722 3.36181 3.43245C3.43421 3.43767 3.50378 3.4627 3.56292 3.5048L3.84 3.70272C4.84976 4.42101 6.0585 4.80631 7.29768 4.80489C8.53686 4.80347 9.74472 4.41541 10.7528 3.6948ZM25.1042 26.0831V18.5623H29.0625V26.0831C29.0625 26.608 28.854 27.1115 28.4828 27.4826C28.1116 27.8538 27.6082 28.0623 27.0833 28.0623C26.5584 28.0623 26.055 27.8538 25.6839 27.4826C25.3127 27.1115 25.1042 26.608 25.1042 26.0831Z" fill="black"/>
</svg>
